<svg id="Layer_2" height="512" viewBox="0 0 128 128" width="512" xmlns="http://www.w3.org/2000/svg" data-name="Layer 2"><path d="m92.46 18.42v23.58l-1.33 1.33-15.34 15.34h-23.58l-15.34-15.34-1.33-1.33v-23.58l15.34-15.34 1.33-1.33h23.58l1.33 1.33z" fill="#5a9ed1"/><path d="m16.583 85.56h94.833v40.69h-94.833z" fill="#583377"/><path d="m16.679 72.337h94.643v13.163h-94.643z" fill="#ff4f9b"/><path d="m52.212 58.667h23.573v13.67h-23.573z" fill="#ededed"/><circle cx="64" cy="105.875" fill="#ededed" r="20.375"/><path d="m64 119.25a13.375 13.375 0 1 1 13.375-13.375 13.39 13.39 0 0 1 -13.375 13.375z" fill="#5a9ed1"/><g fill="#fcda42"><path d="m16.583 94.593h11.042v22.625h-11.042z"/><path d="m100.375 94.593h11.042v22.625h-11.042z" transform="matrix(-1 0 0 -1 211.792 211.81)"/><path d="m27.333 62.333h5.667a4 4 0 0 1 4 4v6a0 0 0 0 1 0 0h-13.667a0 0 0 0 1 0 0v-6a4 4 0 0 1 4-4z"/></g><path d="m60.497 38.667-4.955-4.955v-7.007l4.955-4.955h7.006l4.955 4.955v7.007l-4.955 4.955z" fill="#ededed"/><path d="m113.071 72.337a1.75 1.75 0 0 0 -1.75-1.75h-6.2a1.75 1.75 0 0 0 0 3.5h4.446v9.663h-91.138v-9.663h67.821a1.75 1.75 0 0 0 0-3.5h-8.716v-11.187l16.166-16.167a1.788 1.788 0 0 0 .513-1.254v-23.542a1.759 1.759 0 0 0 -.523-1.264l-6.659-6.659a1.75 1.75 0 0 0 -2.475 2.475l4.817 4.818-16.5 6.835-3.3-3.3 7.827-18.907a1.772 1.772 0 0 0 -1.612-2.435h-23.576a1.786 1.786 0 0 0 -1.252.527l-16.645 16.646a1.766 1.766 0 0 0 -.523 1.264v23.563a1.793 1.793 0 0 0 .513 1.237l16.157 16.154v11.2h-11.712v-4.258a5.756 5.756 0 0 0 -5.75-5.75h-5.667a5.756 5.756 0 0 0 -5.75 5.75v4.254h-4.9a1.75 1.75 0 0 0 -1.75 1.75l-.1 53.913a1.75 1.75 0 0 0 1.75 1.75h94.833a1.75 1.75 0 0 0 1.75-1.75zm-75.78-51.3 16.5 6.834v4.552c-2.152.733-6.633 2.563-16.5 6.889zm14.309-16.197 6.834 16.5-3.3 3.3-16.5-6.835zm39.108 34.536-16.5-6.834v-4.667l16.5-6.834zm-14.308 16.204-6.832-16.5 3.3-3.3 16.5 6.835zm-5.692-22.593-3.93 3.93h-5.556l-3.93-3.93v-5.557l3.93-3.93h5.557l3.93 3.93zm-4.374-12.987h-4.668l-6.835-16.5h18.338zm-11.311 15.668 3.41 3.41-6.833 16.499-13.01-13.007c6.935-3.033 14.055-6.053 16.433-6.902zm6.643 4.749h4.668l6.832 16.5h-18.335zm-7.7 20h20.068v10.17h-20.072zm-28.883 5.916a2.253 2.253 0 0 1 2.25-2.25h5.667a2.253 2.253 0 0 1 2.25 2.25v4.254h-10.167zm40.117 20.978a18.625 18.625 0 1 1 -2.391 0zm-46.867 9.032h7.542v19.125h-7.542zm0 28.157v-5.532h9.292a1.75 1.75 0 0 0 1.75-1.75v-22.625a1.75 1.75 0 0 0 -1.75-1.75h-9.292v-5.532h33.653a22.1 22.1 0 0 0 .094 37.189zm57.586 0a22.1 22.1 0 0 0 .094-37.189h33.652v5.532h-9.292a1.75 1.75 0 0 0 -1.75 1.75v22.625a1.75 1.75 0 0 0 1.75 1.75h9.292v5.532zm33.747-9.032h-7.542v-19.125h7.542z"/><path d="m92.5 72.337a1.75 1.75 0 0 0 1.75 1.75h2.875a1.75 1.75 0 0 0 0-3.5h-2.875a1.75 1.75 0 0 0 -1.75 1.75z"/><path d="m48.875 105.875a15.125 15.125 0 1 0 15.125-15.125 15.142 15.142 0 0 0 -15.125 15.125zm26.75 0a11.625 11.625 0 1 1 -11.625-11.625 11.638 11.638 0 0 1 11.625 11.625z"/><path d="m23.333 77.168a1.75 1.75 0 1 0 0 3.5h13.667a1.75 1.75 0 0 0 0-3.5z"/><path d="m46.083 77.168a1.75 1.75 0 0 0 0 3.5h6.833a1.75 1.75 0 1 0 0-3.5z"/></svg>