<?xml version="1.0"?>
<svg xmlns:rdf="http://www.w3.org/1999/02/22-rdf-syntax-ns#" xmlns="http://www.w3.org/2000/svg" xmlns:cc="http://creativecommons.org/ns#" xmlns:xlink="http://www.w3.org/1999/xlink" xmlns:dc="http://purl.org/dc/elements/1.1/" xmlns:svg="http://www.w3.org/2000/svg" id="svg2" style="enable-background:new" viewBox="0 0 1440 900" version="1.0">
  <defs id="defs4">
    <linearGradient id="linearGradient3745">
      <stop id="stop3747" stop-color="#575757" offset="0"/>
      <stop id="stop3749" stop-color="#575757" stop-opacity="0" offset="1"/>
    </linearGradient>
    <linearGradient id="linearGradient3287" y2="542.39" gradientUnits="userSpaceOnUse" x2="1615" gradientTransform="matrix(.31139 0 0 .31139 221.15 80.431)" y1="434.96" x1="1608.2">
      <stop id="stop3291" stop-color="#fff" offset="0"/>
      <stop id="stop3293" stop-color="#e4e4dc" offset="1"/>
    </linearGradient>
    <linearGradient id="linearGradient3751" y2="659.63" xlink:href="#linearGradient3745" gradientUnits="userSpaceOnUse" x2="745.48" y1="639.18" x1="745.43"/>
    <linearGradient id="linearGradient3755" y2="659.63" xlink:href="#linearGradient3745" gradientUnits="userSpaceOnUse" x2="745.48" gradientTransform="matrix(.63386 0 0 .62435 589.02 174.49)" y1="642.86" x1="744.04"/>
    <radialGradient id="radialGradient3786" gradientUnits="userSpaceOnUse" cy="471.41" cx="581.01" gradientTransform="matrix(1.2567 -.53039 .58148 1.3778 -425.4 129.93)" r="17.315">
      <stop id="stop3782" stop-color="#e8b700" offset="0"/>
      <stop id="stop3788" stop-color="#e2b500" offset=".45674"/>
      <stop id="stop3784" stop-color="#ffe400" offset="1"/>
    </radialGradient>
    <linearGradient id="linearGradient3792" y2="659.63" xlink:href="#linearGradient3745" gradientUnits="userSpaceOnUse" x2="745.48" gradientTransform="matrix(-.98917 -.14675 -.14675 .98917 1227.6 -29.349)" y1="639.18" x1="745.43"/>
    <radialGradient id="radialGradient3843" gradientUnits="userSpaceOnUse" cy="471.41" cx="581.01" gradientTransform="matrix(.87211 -.36124 .40352 .93838 -116.75 240.63)" r="17.315">
      <stop id="stop3847" stop-color="#e8b700" offset="0"/>
      <stop id="stop3849" stop-color="#e2b500" offset=".45674"/>
      <stop id="stop3851" stop-color="#ae9c00" offset="1"/>
    </radialGradient>
    <filter id="filter3863" y="-.093515" width="1.2004" height="1.187" x="-.1002">
      <feGaussianBlur id="feGaussianBlur3865" stdDeviation="0.619973"/>
    </filter>
    <filter id="filter3889">
      <feGaussianBlur id="feGaussianBlur3891" stdDeviation="7.0719681"/>
    </filter>
  </defs>
  <path id="path8114" opacity=".5" style="enable-background:accumulate" d="m633.88 204.08c-60.58 0.62-121.4 5.55-180.54 19.14-17.6 4.77-34.4 13.93-46.26 27.97-1.94 0.55-4.05 0.02-5.98 0.74-1.59 0.33-3.14 0.82-4.66 1.37-0.29 4.57-0.98 9.16-0.57 13.74-13.25 23.9-26.35 48.25-39.51 71.97-0.77-5.03-1.84-10.74-6.07-14.03-6-4.27-14.46-3.68-20.71-0.31-5.38 3.34-7.72 10.23-6.62 16.27-4.17 2.38-6.6 7.23-7.12 11.92-0.69 5.46 1.73 11.23 6.51 14.09 2.12 1.3 3.75 3.45 3.89 5.95 0.8 4.58 0.27 9.33 0.34 13.94-1.42 3.9-2.74 8.06-1.93 12.26 0.36 4.62-0.2 9.36 0.69 13.9 1 3.02 3.67 5.31 6.7 6.08 0.85 0.53 2.36 0.91 1.72 2.23-0.05 4.92-2.68 9.12-5.07 13.19-17.08 34.03-19.28 74.98-7.16 110.94-9.79-2.3-20.63 6.2-20.02 16.39-0.93 11.95 2.92 23.63 2.52 35.54-1.53 5.41-4.34 10.66-3.7 16.45 0.28 9.24 5.01 17.63 10.59 24.72-0.06 4.31 0.22 8.76 2.34 12.6 3.11 6.11 9.8 10.55 16.81 9.76 5-0.36 9.95-1.42 14.85-2.44 2.03-0.78 4.23-0.82 6.16 0.19 6.64 2.06 13.52 3.23 20.26 4.8 5.89 19.12 18.37 36.92 36.42 46.21 17.5 9.02 37.77 10.45 57.16 9.52 14.04-0.16 28.85-2.33 40.4-10.82 9.8-6.83 17.97-15.82 24.19-25.99 35.46 0.49 71.13 0.7 106.3-4.36 5.47 20.19 18.21 39.07 36.95 48.93 17.33 9.09 37.47 10.58 56.73 9.64 13.94-0.08 28.61-2.05 40.27-10.26 17.65-11.73 29.36-30.53 36.38-50.22 4.74-13.12 6.69-27.13 7.94-40.94 3.16-2.12 5.68-5.18 7.06-8.73 55.4-12.68 110.71-25.88 166.14-38.37 0.48 16.8 4.79 34.33 16.02 47.16 7.6 8.29 19 11.68 29.9 12.72 12.6 1.57 26 2.86 37.9-2.29 10.7-4.94 17.8-15.06 22.9-25.27 7.1-14.01 10.9-29.66 12.6-45.24 14.8 6.13 30.5 11.78 46.8 11.23 9.9-1.55 15.7-14.17 10.9-22.9-0.6-1.22-1.3-2.36-2.3-3.34 3.4-6.6 4.1-14.7 1.7-21.77 2-3.32 4-6.59 5.1-10.33 3.3-9.47 2.1-21.2-5.4-28.41-3.2-3.3-7.3-5.74-11.7-7.05 3.2-38.41-1.2-76.84-3.2-115.18-0.2-2.9-0.1-5.77 0.4-8.62 0.6-6.19-1.3-12.35-4.4-17.62-4.8-26.77-9.2-54.1-21-78.86 0.1-4.33-1.4-8.88-5-11.46-2.7-1.96-6.3-2.56-8.8-4.9-13.5-9.44-29.3-14.87-45-19.68-28.9-7.95-58.7-11.11-88.36-14.53-46.34-4.48-92.82-7.4-139.25-10.69-67.65-4.29-135.41-7.12-203.21-6.95z" filter="url(#filter3889)" fill="#fff"/>
  <path id="rect3643" d="m334.58 349.91l0.2-11.61c-0.19-1.99 0.33-3.65 1.16-3.73l6.49-0.61c0.83-0.08 1.65 1.46 1.83 3.44l3.26 29.62c0.19 1.99-0.32 3.65-1.15 3.73l-5.3 0.53-6.59-13.22 0.1-8.15z" style="enable-background:accumulate" fill="#cbcbcb" fill-rule="evenodd"/>
  <path id="rect3630" d="m332.46 358.39c-2.99 0-4.8-1.6-4.8-3.59v-1.21c0-1.99 2.41-3.6 5.4-3.6h4.39c2.29 4.15 0.99 6.18 0 8.4-0.36 0.02-1.03 0.02-1.73 0.02" style="enable-background:accumulate" fill="#cbcbcb" fill-rule="evenodd"/>
  <path id="path2387" d="m1135.3 372.96l-0.1 0.01-311.98 23.41s-90.72 7.48-125.95 12.33c-23.35 3.21-49.79 9.91-64.97 14.06l-3.23 0.89c-5.81 1.61-9.3 2.67-9.3 2.67-37.11 13.01-89.31 43.97-101.72 52.4-11.43 7.76-40.96 29.51-40.96 29.51l-0.18 0.06c-5.34 14.39-83.63 91.01-40.24 69.18-19.29 24.31 4.48 13.66 38.44 14.8 0.03-0.04 0.06-0.07 0.08-0.11 0.07-0.1 0.12-0.2 0.19-0.29 0.02-0.02 0.03-0.03 0.04-0.05 0.06-0.08 0.13-0.16 0.2-0.24 0.07-0.1 0.14-0.19 0.22-0.28 0.09-0.1 0.18-0.2 0.27-0.3 0.13-0.13 0.24-0.26 0.37-0.38 0.04-0.03 0.08-0.06 0.11-0.1 0.1-0.09 0.21-0.18 0.31-0.27 0.14-0.12 0.29-0.24 0.44-0.35 2.42-1.82 7.1-4.67 8.42-5.33 0.33-0.17 0.67-0.23 1-0.23 0.99 0 1.95 0.61 2.7 1.1 0.99 0.66 6.54 4.36 7.42 5.18 0.88 0.83 1.16 2.26 1.16 2.26s-1.93 4.46-0.89 7.81c1.05 3.36 3.69 3.63 3.69 3.63s1.5 6.67 3.37 12.78 4.4 11.34 4.4 11.34l-0.01 0.1 0.11-0.1s47.57 3.08 85.44 0.43l11.01-0.87s41.99-3.48 55.71-5.18c0.47-0.06 0.93-0.12 1.39-0.18 0.09-0.01 0.17-0.02 0.25-0.03 0.37-0.05 0.74-0.1 1.1-0.16 0.17-0.02 0.33-0.05 0.5-0.08 0.71-0.1 1.41-0.22 2.08-0.33 0.32-0.05 0.62-0.1 0.94-0.15 0.07-0.02 0.14-0.03 0.22-0.04 0.89-0.15 1.75-0.3 2.58-0.45 0.34-0.06 0.65-0.11 0.98-0.17 0.56-0.1 1.08-0.2 1.62-0.3 0.69-0.12 1.36-0.24 2.01-0.35 0.18-0.03 0.36-0.06 0.54-0.08 0.01-0.01 0.02-0.01 0.03-0.01 0.52-0.09 1.02-0.16 1.51-0.23 0.15-0.02 0.31-0.04 0.46-0.06 0.27-0.03 0.54-0.06 0.8-0.09 0.3-0.04 0.59-0.07 0.87-0.09 0.28-0.03 0.56-0.05 0.83-0.07h0.08c0.26-0.01 0.52-0.03 0.78-0.04 0.27-0.01 0.54-0.01 0.81-0.01 0.21 0 0.43 0.01 0.64 0.02s0.41 0.02 0.62 0.04c0.17 0.01 0.34 0.03 0.51 0.05s0.34 0.04 0.51 0.07c0.03 0 0.05 0 0.08 0.01 0.04 0 0.07 0.01 0.11 0.02 0.18 0.03 0.36 0.06 0.54 0.09 0.02 0.01 0.03 0.01 0.04 0.01 0.22 0.05 0.44 0.11 0.65 0.17 0.24 0.06 0.47 0.13 0.69 0.21 0.17 0.06 0.33 0.12 0.49 0.19 0.13 0.05 0.25 0.11 0.38 0.16h0.01c0.15 0.07 0.3 0.14 0.45 0.22 0.2 0.1 0.39 0.21 0.59 0.33 0.02 0.01 0.03 0.02 0.05 0.03 0.15 0.09 0.31 0.2 0.47 0.3 0.05 0.03 0.1 0.07 0.15 0.11 0.12 0.08 0.24 0.16 0.35 0.25 0.06 0.04 0.1 0.08 0.16 0.13s0.12 0.09 0.18 0.14c0.18 0.15 0.36 0.3 0.53 0.46 0.2 0.18 0.4 0.37 0.59 0.57 0.05 0.05 0.1 0.1 0.15 0.17l0.01 0.01c0.05 0.06 0.1 0.14 0.15 0.21l0.01 0.01c0.11 0.16 0.22 0.34 0.34 0.56 0.01 0.01 0.02 0.02 0.03 0.04 0.13 0.22 0.28 0.48 0.42 0.75v0.01c0.13 0.25 0.26 0.51 0.39 0.79l0.06 0.12c0.13 0.28 0.26 0.56 0.4 0.87 0.02 0.05 0.05 0.1 0.08 0.16 0.13 0.3 0.26 0.6 0.4 0.92 0.02 0.07 0.05 0.13 0.08 0.2 0.13 0.31 0.26 0.62 0.39 0.94 0.16 0.4 0.31 0.8 0.47 1.2l0.49-0.13c1.55-1.13 2.92-5.82 2.92-5.82 4.76-11 8.86-25.26 22.91-54.26 16.2-27.61 34.32-29.75 44.03-31.17 9.88-1.45 26.44-8.97 40.52 16.29 10.28 27.27 9.25 39.64 9.25 45.36 0 5.41-5.22 12.08-5.8 12.81 1.98-0.45 199.46-45.6 208.46-47.65 9-2.06 14.9-11.6 18-20.87s3.1-9.16 5.8-17.11c0.7-3.25 4.8-6.5 11.5-7.35 6.8-0.87 52-9.53 57.7-10.31 5.6-0.77 5.6-0.25 6.4 3.35 0.8 3.61 1.4 19.58 1.9 25.24 0.1 1.42-2.4 6.44-2.4 6.44l8.8-1.77h0.1c0.3-1.49 0.6-2.85 0.9-3.77 0.7-3.22 3.2-3.73 4.7-3.99 0.8-0.12 2.5-0.49 4.3-0.93 0.1-0.01 0.1-0.03 0.2-0.04 1.6-9.02 3-18.09 4.8-27.08 0.4-2.09 1.3-22.92 1.3-23.3s1.2-18.87 1-27.78c-0.3-8.9-2.4-37.38-2.4-44.63s-2.6-35.24-2.6-36.25c0-0.97-0.5-2.38-0.9-2.77zm-797.78 179.53l-0.06 2.04s-5.91 0.13-7.42 0.23c-1.28 0.09-1.27 1.28-1.27 1.28l-0.55 8.38 11.08 9.05 2.64 2.96 3.89-1.35c4 0.96 9.6 2.2 15.67 3.14-9.62-4.87-17.85-13.9-23.98-25.73zm0.24 29.75c0.08 0.08 0.16 0.16 0.25 0.24-0.08-0.08-0.17-0.16-0.25-0.24zm4.3 2.07l0.02 0.07 11.56 22.48h-0.04l0.36 0.06c1.31 0.4 27.78 8.41 55.48 12.67 28.4 4.37 65.55 8.01 65.55 8.01l0.17-0.75c-0.02-0.43-0.05-0.87-0.08-1.29-0.13-2.4-0.26-4.72-0.38-6.96-0.02-0.35-0.03-0.68-0.05-1.02-0.04-0.86-0.09-1.7-0.13-2.51-0.09-1.73-0.15-3.17-0.23-4.66-0.15-3.15-0.27-5.72-0.37-7.84l-0.01 0.06c-28.17-1.83-49.99-4.75-79.89-8.4-15.19-1.85-29.38-4.35-39.8-6.75-6.45-1.49-10.14-2.52-12.16-3.17zm134.97 69.37c0.25 2.85 0.51 5.55 0.78 7.95h0.01c-0.28-2.41-0.54-5.09-0.79-7.95z" style="enable-background:accumulate" fill="#918a6f"/>
  <path id="path5193" d="m644.61 215.88c-29.17 0.05-56.01 0.89-78.43 2.81-101.38 8.71-122.22 20-125.81 21.8-3.59 1.79-16.81 8.09-27.4 22.42l-4.01 1.66 0.23 2.55s-54.61 99.96-55.71 101.94c-1.1 1.99-4.4 5.07-4.84 6.61-0.43 1.49-2.5 13.62-3.03 17.61l0.23 0.02-0.29 0.42c0.02-0.11 0.04-0.31 0.06-0.44l-0.06-0.01v0.02h-8.06c-0.84-0.14-1.21 0.4-1.02 1.78l0.18 11.64h8.25s-1.49 2.93 1.31 5.74c0.16 0.15-0.9 11.28-1.52 17.64 9.71-14.84 22.34-24.72 35.92-27 7.07-2.49 16-4.52 26.27-4.42 10.26 0.09 21.85 2.3 34.24 8.24l0.38 0.19c24.58 10.87 40.44 48.27 36.58 91.67-0.29 3.23-0.68 6.41-1.17 9.53l0.18-0.06s12.66-9.32 24.62-17.94c5.41-3.89 10.82-7.81 16.34-11.57 12.41-8.43 64.61-39.39 101.72-52.4 0 0 3.49-1.06 9.3-2.67l3.23-0.89c12.33-3.37 32.1-8.43 51.6-11.93 1.5-0.27 3-0.53 4.5-0.78 2.99-0.5 5.95-0.95 8.87-1.35 35.23-4.85 125.95-12.33 125.95-12.33l186.78-14.01 125.2-9.4 0.1-0.01 0.4-0.54c0.9-1.34 2-4.26 1.1-9.12-0.9-4.59-2.8-5.99-3.4-6.33-0.4-2.77-8.6-57.57-20.6-80.05l-4.6-6.91c-0.3-0.31-0.6-0.6-0.7-0.81-4.3-4.75-14.8-10.05-30.3-16.57-19.8-8.29-63.4-14.76-81.92-17.12-15.48-1.98-210.12-19.89-350.67-19.63zm-207.94 361.6c-0.83 0.45-1.67 0.87-2.52 1.25l0.05 0.07c-7.79 3.36-15.09 5.55-21.87 6.84-0.01 0-0.02 0.01-0.03 0.01l-0.01-0.01-0.15 0.03 0.11 0.06c6.98 0.85 13.84 1.69 20.67 2.5l0.18-0.51s1.82-6.08 3.57-10.24zm-98.91 4.76c0.08 0.08 0.17 0.16 0.25 0.24-0.09-0.08-0.17-0.16-0.25-0.24zm70.52 4.07c-0.44 0.06-0.87 0.11-1.3 0.17l0.04 0.01c0.42-0.06 0.84-0.12 1.26-0.18zm-2.67 8.52s4.74 18.02 11.48 18.39c6.73 0.36 10.37-5.65 12.56-14.94l-24.04-3.45z" style="enable-background:accumulate" fill="url(#linearGradient3287)" fill-rule="evenodd"/>
  <path id="path8026" d="m747.89 278.72l42.62 0.79c5.45 0.07 6.19 3.82 6.85 5.96l15.39 86.13-47.49 1.9" style="enable-background:accumulate" fill="#5d536c" fill-rule="evenodd"/>
  <path id="path3448" d="m702.35 281.24l-0.36 3.18c4.56 0.11 3.78 3.29 3.38 5.27l-9.94 52.36-3.56 31.99 67.78-2.33-3.19-18.19c-0.85-2.06-4.36-3.62-7.74-3.62-3.52 0-26.2-0.43-26.2-0.43l14.43-64.85 7.19 0.13-0.59-3.28-41.2-0.23z" style="enable-background:accumulate" fill="#6d6f84" fill-rule="evenodd"/>
  <path id="path3230" d="m816.54 374.82l-15.88-90.07c-0.61-2.79-2.56-9.8-10.9-9.34l-127.71-1.29c-5.33 0.12-8.46-0.33-10.35 6.02" style="enable-background:accumulate" fill="none"/>
  <path id="path3545" d="m405.65 398.67c-9.76 0.07-18.25 2.03-25.04 4.42 3-0.5 6.05-0.64 9.12-0.38 31.02 2.69 52.92 45.08 48.87 94.6-0.06 0.77-0.13 1.54-0.2 2.31-0.01 0.09-0.02 0.19-0.03 0.29-0.07 0.67-0.14 1.34-0.22 2-0.02 0.19-0.04 0.39-0.07 0.58-0.06 0.57-0.14 1.13-0.21 1.7v0.04c-0.09 0.67-0.19 1.33-0.28 1.99-0.01 0.08-0.02 0.15-0.03 0.23-0.05 0.37-0.11 0.75-0.17 1.12-0.02 0.14-0.04 0.28-0.06 0.43-0.09 0.57-0.19 1.13-0.29 1.7-0.02 0.12-0.03 0.25-0.05 0.37-0.05 0.28-0.1 0.56-0.15 0.83-0.1 0.55-0.2 1.1-0.3 1.64-0.04 0.19-0.07 0.38-0.11 0.56-0.05 0.24-0.1 0.48-0.15 0.71-0.09 0.49-0.19 0.99-0.3 1.47-0.15 0.72-0.3 1.43-0.46 2.13-0.01 0.01-0.01 0.02-0.01 0.02-8.87 38.69-33.04 66.19-59.24 64.79-0.38-0.01-0.78-0.04-1.19-0.07-0.44-0.04-0.88-0.09-1.32-0.14-0.04-0.01-0.09-0.01-0.13-0.02-0.48-0.06-0.96-0.13-1.43-0.21-0.4-0.07-0.8-0.15-1.2-0.23-0.23-0.04-0.46-0.09-0.69-0.14-0.24-0.06-0.47-0.11-0.7-0.17-0.26-0.06-0.51-0.14-0.76-0.2-0.12-0.04-0.25-0.07-0.37-0.1-0.35-0.1-0.7-0.2-1.05-0.31-0.04-0.02-0.09-0.03-0.13-0.04-0.4-0.13-0.79-0.26-1.19-0.4-0.39-0.14-0.79-0.28-1.18-0.44 9.76 4.94 25.86 9.95 47.36 5.89l0.01 0.01c0.01 0 0.02-0.01 0.03-0.01 6.78-1.29 14.08-3.48 21.87-6.84l-0.05-0.07c22.36-10.16 40.51-41.45 43.93-79.96 3.86-43.4-12-80.8-36.58-91.67l-0.38-0.19c-12.39-5.94-23.98-8.15-34.24-8.24-0.41-0.01-0.82-0.01-1.23 0z" style="enable-background:accumulate" fill="#333" fill-rule="evenodd"/>
  <path id="path7130" d="m438.6 497.31c-4.04 49.52-32.5 87.53-63.52 84.84-31.03-2.69-52.92-45.07-48.88-94.59 1.82-22.26 8.57-42.2 18.27-57.15 11.88-18.32 28.18-29.17 45.26-27.69 31.02 2.69 52.92 45.06 48.87 94.59z" style="enable-background:accumulate" fill="#595959"/>
  <path id="path3589" d="m317.28 557.1c-0.81 0.03-4.08 0.52-4.13 6.43-0.07 6.72 3.42 34.11 3.46 34.41 0.01-0.01 0.01-0.02 0.01-0.03 2.51-5.73 4.45-5.98 4.45-5.98l0.04 0.02c0.03 0.83 0.06 1.73 0.1 2.58v-0.01c-0.4-10.47-0.76-19.44-0.82-20.45-0.18-2.91 1.11-7.45 5.1-8.74v-0.01s0.37-0.1 0.41-0.11v-0.01s-1.75-0.83-3.1-4.11c-1.35-3.29-2.06-3.99-5.34-3.99 0 0-0.06-0.01-0.18 0z" style="enable-background:accumulate" fill="#ccc" fill-rule="evenodd"/>
  <path id="path7040" d="m353.96 606.92l-0.37-0.06s-6.43 0.16-9.34 3.44c-2.92 3.28-7.48 15.67-7.48 19.49s6.34 11.91 6.75 13.84c0.57 2.68 83.53 21.65 135.07 23.85-1.39-8.74-2.57-25.63-3.43-40.64l-0.17 0.76s-37.15-3.64-65.55-8.01c-27.7-4.26-54.17-12.27-55.48-12.67z" style="enable-background:accumulate" fill="#ccc" fill-rule="evenodd"/>
  <path id="path3289" d="m1085.7 514.45c-14.3 2.64-30.4 5.61-34.2 6.1-6.7 0.85-10.8 4.1-11.5 7.35-2.7 7.95-2.7 7.84-5.8 17.11s-9 18.81-18 20.87-0.5 0.1-0.5 0.11l-0.4 1.73c-0.4 1.32-0.8 1.73-2 2.08l-14.02 3.25c-2.32 34.04 8.02 59.38 27.22 61.53 0.2 0.37 17.6 3.88 31 2.49 17.4 1.08 34.2-28.19 37.5-65.33 2.1-23.62-1.7-44.75-9.3-57.29z" style="enable-background:accumulate" fill="#333" fill-rule="evenodd"/>
  <path id="path3185" d="m1085.7 514.45c-14.3 2.64-30.4 5.61-34.2 6.1-3.7 0.47-6.6 1.66-8.5 3.18-5.6 11.52-9.7 26.5-11.2 43.01v1.14c-1.2 13.92-0.2 26.94 2.2 37.89 0.1 0.37 0.2 0.75 0.3 1.11v0.26c4.3 17.46 12.7 29.18 23.3 29.84 7.1 0.45 14.1-4.19 20.1-12.38 0.3-0.31 0.5-0.64 0.7-0.96 0.2-0.23 0.4-0.47 0.5-0.7 0.1-0.1 0.2-0.2 0.2-0.29 0.2-0.34 0.5-0.68 0.7-1.03 0.1-0.24 0.3-0.48 0.5-0.72 0-0.11 0.1-0.22 0.2-0.33 0.1-0.24 0.3-0.49 0.4-0.74 0.1-0.11 0.1-0.22 0.2-0.34 7-11.86 12.2-28.78 13.9-47.75 2.1-23.62-1.7-44.75-9.3-57.29z" style="enable-background:accumulate" fill="#575757" fill-rule="evenodd"/>
  <path id="path3183" style="enable-background:accumulate" d="m1509 945.11a58.25 138.25 0 1 1 -116.5 0 58.25 138.25 0 1 1 116.5 0z" fill-rule="evenodd" transform="matrix(.37322 .021606 -.029874 .31277 550.61 243.77)" fill="#fff"/>
  <path id="path3871" style="enable-background:accumulate" d="m1509 945.11a58.25 138.25 0 1 1 -116.5 0 58.25 138.25 0 1 1 116.5 0z" fill-rule="evenodd" transform="matrix(.33861 .020855 -.027104 .30190 599.13 254.94)" fill="#b3b3b3"/>
  <path id="path4167" d="m1112.4 509.94c-0.8 0.01-1.8 0.11-3.2 0.3-2.5 0.34-12.6 2.2-23.5 4.21 4.4 7.34 7.6 17.62 9 29.62l20.4 1.2s2.5-5.02 2.4-6.44c-0.5-5.66-1.1-21.63-1.9-25.24-0.6-2.7-0.7-3.66-3.2-3.65z" style="enable-background:accumulate" fill="#333"/>
  <path id="path2393" d="m1135 529.75c-0.1 0.34-0.1 0.67-0.2 1.01 1 0.31 3.3 1.01 3.8 1.12 0.7 0.12 2.7 0.9 0.7 1.54-1.1 0.33-3.2 0.87-5.2 1.35-0.1 0.01-0.1 0.03-0.2 0.04-1.8 0.44-3.5 0.81-4.3 0.93-1.5 0.26-4 0.77-4.7 3.99-0.3 0.92-0.6 2.28-0.9 3.77-0.9 3.7-1.9 8.3-1.8 9.86 0.1 2.19 2.8 8.13 3.2 8.91 0.4 0.77 1 2.06 4.4 1.42 3.3-0.65 15.8-3.1 17.2-3.49 1.4-0.38 1.7-0.92 3-3.11s3.4-6.18 3.4-9.35c0.1-2.76-2.5-9.81-2.5-9.81l-0.1-0.01-0.1-0.22c-0.2 0.42-0.4 0.91-0.4 0.91-2.8-0.49-5.6-2.84-5.9-4.61 0 0 0.4-0.64 0.9-1.61-3.6-1.76-8.7-2.45-10.3-2.64z" style="enable-background:accumulate" fill="#ccc" fill-rule="evenodd"/>
  <path id="path2397" d="m1090.2 410.61s0.096 2.7728 0.8452 3.194c1.3355 0.75076 2.6035 0.30421 4.6758 0.13571 2.9561-0.24038 22.414-1.5858 24.159-1.7286 1.7447-0.14274 2.6794-1.2214 2.667-3.7723l-0.135-0.13361-32.212 2.3047z" style="enable-background:accumulate" fill="#76705a"/>
  <path id="path2403" d="m811.35 612.69l0.27 2.49c0.15 1.03 1.1 1.29 2.01 0.96l99.74-23.16 50.79-11.79 49.14-11.4c1.2-0.35 1.6-0.75 2-2.07l0.4-1.79-204.35 46.76z" style="enable-background:accumulate" fill="#76705a"/>
  <path id="path3194" d="m1139.3 502.65c-0.2 2.52-0.3 4.48-0.4 5.04-0.1 0.57-0.2 1.13-0.3 1.7 2.7 0.36 5.7 0.54 8.3 1.59 2.6 1.31 4.2 3.25 4.5 5.64 0.3 2.38-0.4 5.09-1.2 6.51-2.6 4.51-5.8 10.87-5.8 10.87 0.3 1.77 3.1 4.12 5.9 4.61 0 0 3.8-7.87 6.2-11.95 1.7-3.06 2.6-7.12 2-11.39s-3.4-8.91-8.7-10.68c-2.7-0.93-6.9-1.87-10.5-1.94z" style="enable-background:accumulate" fill="#b3b3b3" fill-rule="evenodd"/>
  <path id="path8112" d="m828.52 385.79s-90.72 7.49-125.95 12.33c-23.36 3.21-49.8 9.91-64.98 14.06l-3.23 0.89c-5.81 1.62-9.29 2.67-9.29 2.67-37.11 13.01-89.32 43.97-101.73 52.41-11.42 7.75-40.96 29.5-40.96 29.5l-0.17 0.06c-0.66 1.76-2.41 4.45-4.89 7.78-0.13 0.94-0.26 1.88-0.41 2.81l0.18-0.06s12.66-9.32 24.62-17.94c5.41-3.89 10.82-7.81 16.34-11.57 12.41-8.43 64.61-39.39 101.72-52.4 0 0 3.49-1.06 9.3-2.67l3.23-0.89c12.33-3.37 32.1-8.43 51.6-11.93 1.5-0.27 3-0.53 4.5-0.78 2.99-0.5 5.95-0.95 8.87-1.35 35.23-4.85 125.95-12.33 125.95-12.33l186.78-14.01 125.2-9.4 0.1-0.01 0.4-0.54c0.8-1.21 1.7-3.71 1.3-7.75l-308.48 21.12z" style="enable-background:accumulate" fill="#b4b4b4"/>
  <path id="path3202" d="m825.26 442.8l2.64 78.61s-0.81 59.48-1.09 66.17c-0.3 7.32-0.95 23.55-4.82 22.58m-5.51-235.39c1.86-0.32 6.1 3.75 6.75 7.91 0.61 3.9 2.34 10.44-0.62 13.86l2.54 40.1" style="enable-background:accumulate" fill="none"/>
  <path id="path3206" d="m610.08 627.69l0.08-23.14" style="enable-background:accumulate" fill="none"/>
  <path id="path3257" d="m632.08 423.68l1.07-10.48-11.71-1.39-1.39 10.85 12.03 1.02z" style="enable-background:accumulate" fill="#918a6f" fill-rule="evenodd"/>
  <path id="path3208" d="m655.9 263.74l-30.33 119.27-6.19 43.39c-4.27 29.9-7.98 82.72-9.3 106.94-0.29 5.28 0 55.25 0 55.25l7.98 0.22-0.26 15.63-7.95 0.53" style="enable-background:accumulate" fill="none"/>
  <path id="path3242" d="m823.11 274.56c-4.13 0.15-6.27 2.48-4.56 10.62 0 0 5.55 25.55 7.53 36.78s6.83 43.82 6.83 43.82c0.81 3.88 1.56 9.55 9.25 8.8l55.38-3.08c6.62-0.39 7.02-4.1 6.5-9.91-4.55-25.43-8.84-50.79-14.98-76.62-1.39-4.17-1.33-9.25-9.03-9.47l-55.05-0.89c-0.66-0.05-1.29-0.08-1.87-0.05zm87.03 1.04c-7.98 0.03-4.67 11.24-4.67 11.24-0.22 0 5.83 24.55 6.49 28.96 0.66 4.4 5.4 35.45 7.16 46.01 1.76 10.57 10.02 7.82 13.1 7.6 3.08-0.23 39.74-2.2 44.69-2.54 4.96-0.33 4.3-7.37 3.42-12.99-0.88-5.61-10.56-59.01-12.44-68.8-1.87-9.8-10.24-8.59-11.78-8.59s-37.1-0.55-45.58-0.88c-0.13-0.01-0.26-0.01-0.39-0.01zm76.86 2.21c-7.02 0.03-4.11 10.54-4.11 10.54-0.19 0 4.25 22.19 4.83 26.33 0.58 4.13 6.07 33.29 7.61 43.22 1.43 9.21 8.77 7.34 11.47 7.14 2.7-0.21 34.2-2.27 38.5-2.39 6.1-0.17 5-6.76 3.8-12.19-1.1-5.21-9.9-54.9-11.6-64.09-1.7-8.74-9-8.07-10.4-8.07-1.3 0-32.32-0.18-39.76-0.49-0.12-0.01-0.23 0-0.34 0z" style="enable-background:accumulate" fill="#5d536c" fill-rule="evenodd"/>
  <path id="path3277" d="m1117.3 536.27c0.1 0.99 0.2 1.85 0.2 2.56 0-0.69-0.1-1.58-0.2-2.56zm6.6 7.23l-8.8 1.77-20.4-1.2c0.3 2.17 0.5 4.4 0.6 6.67 0.1 0.03 5.5 2.19 9.6 3.84l2.6-0.99 15.2 2.21v-0.07c-0.3-0.94-0.5-1.79-0.5-2.37-0.1-1.56 0.9-6.16 1.8-9.86h-0.1z" style="enable-background:accumulate" fill="#333" fill-rule="evenodd"/>
  <path id="path3293" d="m999.28 573.03l-10.23 2.26 9.99 2.15c0.06-1.42 0.14-2.86 0.24-4.31 0-0.04-0.01-0.07 0-0.1z" style="enable-background:accumulate" fill="#484537" fill-rule="evenodd"/>
  <path id="path3299" d="m778.51 536.9c-5.61-0.02-10.73 1.58-14.74 2.17-8.11 1.19-22.07 2.88-35.88 19.46 6.97-4.14 14.44-6.41 22.06-6.4 1.42 0 2.85 0.08 4.28 0.24 26.51 2.99 45.65 33.09 47.63 71.02l2.11 2.63c0.62 0.29 0.94 1.09 2.33 0.03 1.52-1.15 3.7-2.87 3.7-3.28 0-0.6-2.85-8.45-3.05-9l0.68-0.1s5.91-7.22 5.91-12.95c0-5.72 1.03-18.09-9.25-45.36-8.36-15-17.59-18.44-25.78-18.46z" style="enable-background:accumulate" fill="#333" fill-rule="evenodd"/>
  <path id="path3873" d="m1064.4 541.36c-7.3 0.33-14.2 12.31-15.5 27.41-1.5 15.57 3.5 28.59 11 29.04 2.1 0.13 3.4-0.5 6.2-2.48s13.2-11.96 13.2-26.24c0-18.41-6.9-23.4-8.4-25.05-1.6-1.65-3.3-2.51-5.8-2.67-0.3-0.01-0.5-0.02-0.7-0.01z" style="enable-background:accumulate" fill="#fff" fill-rule="evenodd"/>
  <path id="path3880" d="m1064 535.62c-8.1-0.07-15.9 14.67-17.4 33.29-1.6 18.92 3.8 34.72 12.1 35.27 5.5 0.36 10.8-6.09 14.3-16.01v-0.22c-2.7 3.89-5.6 6.48-6.9 7.38-2.8 1.98-4.1 2.61-6.2 2.48-7.5-0.45-12.5-13.47-11-29.04 1.3-15.1 8.2-27.08 15.5-27.41 0.2-0.01 0.4 0 0.7 0.01 2.5 0.16 4.3 1.02 5.8 2.67 0.7 0.71 2.3 2.04 4 4.77v-0.05c-2.2-7.73-5.9-12.81-10.5-13.12-0.2-0.01-0.3-0.02-0.4-0.02z" style="enable-background:accumulate" fill="#878787" fill-rule="evenodd"/>
  <path id="path3885" d="m702.7 278.16l-0.35 3.08 41.2 0.23 16.1 90.23-67.79 2.27-0.32 2.24 68.44-2.32 0.76 0.06 1.77-0.06-17.68-94.98-42.13-0.75z" style="enable-background:accumulate" fill="#5d536c" fill-rule="evenodd"/>
  <path id="path3207" d="m749 284.8l28.24 0.7c1.34 0.18 3.14-0.67 2.53 3.97l-11.01 61.76c-0.57 2.27-2.01 3.47-3.74 3.41l-3.19-0.19-12.83-69.65z" style="enable-background:accumulate" fill="#d5e5ff" fill-rule="evenodd"/>
  <path id="path2426" d="m623.62 260.52s1.33 2.59 4.85 2.59 4.38-2.59 4.38-2.59 136.27 2.39 239.06 5.04c102.79 2.66 239.29 4.52 239.29 4.52 0.8 0.62 0.3 1.24 0 1.86l-228.4-3.72-254.73-4.78-206.38 2.12c-4.4-0.01-13.33-0.34-14.05 0.14-0.1-0.86-0.03-2.53-0.03-2.53l216.01-2.65z" style="enable-background:accumulate" fill="#fff" fill-rule="evenodd"/>
  <path id="path8022" d="m748.39 281.38 0.63251 3.4545 0.0195-0.0292 28.201 0.70064c1.3447 0.17676 3.1378-0.67906 2.5301 3.9606l-11.016 61.763c-0.57261 2.2676-2.0026 3.471-3.7368 3.4156l-3.1894-0.18733 3.0627 16.928 44.845-2.2343-5.5893-31.137c-3.2227 0.57076-5.8728 1.7444-7.8238 4.8266-1.2704 3.7106-3.4498 9.264-3.4545 9.2835-0.0213 0.0861-0.60583 0.0577-1.8002 0-1.6305-0.0589-3.1315-0.15228-2.6664-3.075l8.8262-49.551-2.0923-11.658c-0.65221-2.0898-1.3772-5.7399-6.7144-5.8095l-40.034-0.65198z" style="enable-background:accumulate" fill="#6d6f84" fill-rule="evenodd"/>
  <path id="path3229" d="m643.21 377.81c-7.87 0.21-11.01-8.74-8.4-16.44l18.87-77.29c0.38-0.99 1.07-6.12 7.64-6.08l37.47 0.17-11.35 98.35-44.23 1.29z" style="enable-background:accumulate" fill="#5d536c" fill-rule="evenodd"/>
  <path id="path3233" d="m657.99 283.46c-0.42 0.57-0.58 1.57-0.73 2.34l-16.49 66.6 11.6 0.82c1.28-2.59 3.41-5.32 6.88-5.31 0.12 0 0.23 0 0.34 0.01 5.92 0.31 28.42 0.93 28.42 0.93l0.02 0.55 7.16-65.1-0.1 0.09-37.1-0.93zm44.03 0.99l-0.05 0.08-6.54 57.52 9.94-52.36c0.4-1.98 1.22-5.12-3.35-5.24z" style="enable-background:accumulate" fill="#d5e5ff" fill-rule="evenodd"/>
  <path id="path3241" d="m659.25 347.91c-3.47-0.01-5.6 2.72-6.88 5.31l-11.6-0.82-2.66 10.78c-1.31 6.75-0.35 11.49 5.58 11.83l41.5-0.71 2.84-24.9-0.02-0.55s-22.5-0.62-28.42-0.93c-0.11-0.01-0.22-0.01-0.34-0.01z" style="enable-background:accumulate" fill="#6d6f84" fill-rule="evenodd"/>
  <path id="path3245" d="m661.67 280.97c-1.5 0.07-2.79 0.82-3.68 2.49h0.05l37.05 0.93 0.1-0.09 0.35-3.18c-11.29 0.04-22.58-0.23-33.87-0.15z" style="enable-background:accumulate" fill="#6d6f84" fill-rule="evenodd"/>
  <path id="path3249" d="m804.08 338.27s-6.2 0.04-7.75 4.57c-1.28 3.71-3.45 9.26-3.46 9.28-0.02 0.09-0.61 0.06-1.8 0-1.63-0.06-3.13-0.15-2.66-3.07l8.82-49.55 6.85 38.77z" style="enable-background:accumulate" fill="#d5e5ff" fill-rule="evenodd"/>
  <path id="rect3264" d="m659.98 384.13l-2.01-14.8c-0.89-7.03 3.33-13.3 9.45-14.08l9.25-1.17c6.12-0.77 11.77 4.26 12.66 11.28l3.46 27.32c0.88 7.02-3.33 13.3-9.45 14.08l-9.25 1.17c-6.13 0.77-11.77-4.26-12.66-11.28l-1.06-8.34-0.12-0.98" style="enable-background:accumulate" fill="#5d536c" fill-rule="evenodd"/>
  <path id="path3267" d="m661.9 386.78c0.06 0.44 0.03 0.45 0.08 0.89 0.5 4.12 1.12 8.21 2.14 12.23 1.94 4.42 7.3 5.5 11.5 5.18 4.3-0.54 9.72-0.14 12.44-4.36 2.94-4.18 1.62-9.7 0.86-14.44-1.12-8.12-1.49-16.43-3.61-24.37-1.78-3.61-5.78-6.04-9.59-5.36-4.44 1.2-9.92-0.04-13.39 3.66-3.07 3.13-3.15 8.07-2.21 12.25 0.52 3.25 1.01 11.02 1.37 11.02" style="enable-background:accumulate" fill="#c6c6c6" fill-rule="evenodd"/>
  <path id="path3427" d="m749.95 552.13c-7.62-0.01-15.09 2.26-22.06 6.4-2.74 3.28-5.47 7.15-8.15 11.71-14.05 29-18.15 43.26-22.91 54.26 0 0-1.37 4.69-2.92 5.82l-0.49 0.13c1.31 3.44 2.46 7.19 2.46 9 0 3.53-1.32 13.65-8.37 17.18-0.17 0.08-0.36 0.17-0.57 0.26l0.69 1.52c3.46 35.29 22.02 62.65 47.22 65.5 31.29 3.53 61.01-32.03 66.36-79.38 5.35-47.34-15.7-88.63-46.98-92.16-1.43-0.16-2.86-0.24-4.28-0.24zm-71.37 67.92c-0.23 0.02-0.46 0.04-0.7 0.07 0.24-0.03 0.47-0.05 0.7-0.07zm6.49 0.37c0.14 0.04 0.28 0.09 0.42 0.13-0.14-0.04-0.28-0.09-0.42-0.13zm1.99 0.81c0.19 0.09 0.37 0.19 0.55 0.3-0.18-0.11-0.36-0.21-0.55-0.3zm0.55 0.3c0.2 0.12 0.4 0.25 0.6 0.39-0.2-0.14-0.4-0.27-0.6-0.39zm1.35 0.96c0.17 0.14 0.33 0.28 0.49 0.43-0.16-0.15-0.32-0.29-0.49-0.43zm0.49 0.43c0.2 0.18 0.4 0.37 0.59 0.57-0.19-0.2-0.39-0.39-0.59-0.57z" style="enable-background:accumulate" fill="#575757" fill-rule="evenodd"/>
  <path id="path6895" style="enable-background:accumulate" d="m693.47 650.14c-0.07 0.13-0.14 0.27-0.21 0.41 0.07-0.14 0.14-0.28 0.21-0.41z" fill-rule="evenodd" fill-opacity=".53591" fill="#b2b2b2"/>
  <path id="path6893" d="m686.94 656.89c-5.13 2.16-22.25 5.32-42.19 8.06 4.2 21.58 14.31 39.24 28.28 48.36v0.02c11.4 7.73 25.16 10.53 36.68 11.3 9.67 0.65 23.31-0.05 30.23-0.49-1.69 0.04-3.38-0.04-5.09-0.23-25.2-2.85-43.76-30.21-47.22-65.5l-0.69-1.52z" style="enable-background:accumulate" fill="#333" fill-rule="evenodd"/>
  <path id="path3432" style="enable-background:accumulate" d="m744.36 723.79c-0.25 0.04-0.49 0.07-0.74 0.1 0.4-0.03 0.76-0.06 0.76-0.06l-0.02-0.04z" fill-rule="evenodd" fill-opacity=".53591" fill="#b2b2b2"/>
  <path id="path3436" style="enable-background:accumulate" d="m1509 945.11a58.25 138.25 0 1 1 -116.5 0 58.25 138.25 0 1 1 116.5 0z" fill-rule="evenodd" transform="matrix(.55187 -.0078411 -.013960 .43859 -37.656 232.51)" fill="#fff"/>
  <path id="path3446" style="enable-background:accumulate" d="m1509 945.11a58.25 138.25 0 1 1 -116.5 0 58.25 138.25 0 1 1 116.5 0z" fill-rule="evenodd" transform="matrix(.52098 -.0075747 -.013179 .42369 7.707 245.69)" fill="#b3b3b3"/>
  <path id="path3440" d="m747.97 595c-10.66 1.23-19.53 18.66-20.03 39.82-0.51 21.85 8.1 39.43 19.22 39.25 3.16-0.05 4.93-1.07 8.89-4.13 3.97-3.06 18.21-18.07 16.75-37.96-1.88-25.62-12.48-31.83-14.92-33.96-2.45-2.13-5.11-3.14-8.86-3.08-0.35 0-0.7 0.02-1.05 0.06z" style="enable-background:accumulate" fill="#fff" fill-rule="evenodd"/>
  <path id="path3719" d="m759.01 632.58c-1.8092 3.7654-2.3586 3.8473-3.2159 4.6267-0.97135 0.88305-3.0507-1.2011-4.9427 0.44839-3.4439 3.0024-6.3615-1.0708-9.5405-2.4837s-3.1771 0.0857-5.1198 0.70383-2.0221 0.87983-4.2233-0.78267c-0.50669-0.3827-0.74625-2.5775-1.6875-5.0938-1.3272 13.262 0.53059 27.094 8.5312 37.75 3.6182 5.02 11.217 5.7445 15.438 1.0312 5.5676-4.5677 9.9208-10.462 12.781-17-0.31842 0.10545-0.65176 0.21614-1 0.28125-6.8762-0.0767-7.6501-9.0267-7.75-14.25 0.20133-2.4144 0.20558-2.5098 0.72964-5.2313z" style="enable-background:accumulate" fill="url(#linearGradient3751)" fill-rule="evenodd"/>
  <path id="path3442" style="enable-background:accumulate" d="m2752.2 1575a11.158 31.062 0 1 1 -22.3 0 11.158 31.062 0 1 1 22.3 0z" fill-rule="evenodd" transform="matrix(.45878 .029365 -.030774 .43369 -442.64 -127.75)" fill="#b3b3b3"/>
  <path id="path3444" d="m747.23 586.75c-12.22 0.07-22.54 21.64-23.03 48.14-0.5 26.5 9.02 47.95 21.24 47.88 7.89-0.05 14.98-9.05 19.15-22.54-3.38 5-6.87 8.43-8.54 9.72-3.97 3.06-5.73 4.06-8.89 4.12-11.12 0.18-19.73-17.41-19.22-39.25 0.5-21.16 9.37-38.59 20.03-39.82 0.35-0.04 0.7-0.06 1.05-0.07 3.75-0.06 6.41 0.97 8.86 3.1 1 0.87 3.4 2.44 5.99 5.77-3.87-10.46-9.83-17.09-16.64-17.05zm16.74 17l-0.03 0.14c0.01 0.02 0.02 0.03 0.03 0.04v-0.18z" style="enable-background:accumulate" fill="#878787" fill-rule="evenodd"/>
  <path id="path3462" d="m681.25 619.91c-5.04-0.04-11.43 1.81-20.38 2.92-13.72 1.7-55.71 5.18-55.71 5.18l-11.01 0.87c-37.87 2.65-85.44-0.43-85.44-0.43s-4.39 3.96-6.59 6.17c-2.21 2.2-3.09 14.52-2.21 21.57s4.4 13.16 4.4 13.16l0.88 0.7s65.62 2 99.09-0.65c33.47-2.64 76.19-9.25 83.23-12.77 7.05-3.53 8.37-13.65 8.37-17.18 0-3.52-4.31-14.37-5.84-15.96-2.55-2.64-5.35-3.55-8.79-3.58z" style="enable-background:accumulate" fill="#ccc" fill-rule="evenodd"/>
  <path id="path8082" d="m446.9 616.31c-0.23 0.02-0.46 0.04-0.7 0.07 0.24-0.03 0.47-0.05 0.7-0.07z" style="enable-background:accumulate" fill="#333" fill-rule="evenodd"/>
  <path id="path8080" d="m453.39 616.68c0.14 0.04 0.28 0.09 0.42 0.14-0.14-0.05-0.28-0.1-0.42-0.14z" style="enable-background:accumulate" fill="#333" fill-rule="evenodd"/>
  <path id="path3468" d="m486.76 584.35c-0.33 0-0.67 0.06-1 0.23-1.32 0.66-6 3.51-8.42 5.33s-3.79 4.52-3.63 7.83c0.17 3.3 2.91 71.88 6.43 75.52 3.53 3.63 8.71 5.01 12.61 3.36 3.48-1.47 10.53-5.82 12.13-6.82l-0.57-0.45s-3.52-6.11-4.4-13.16 0-19.37 2.21-21.57c2.15-2.15 6.28-5.89 6.48-6.07l0.01-0.1s-2.53-5.23-4.4-11.34-3.37-12.78-3.37-12.78-2.64-0.27-3.69-3.63c-1.04-3.35 0.89-7.81 0.89-7.81s-0.28-1.43-1.16-2.26c-0.88-0.82-6.43-4.52-7.42-5.18-0.75-0.49-1.71-1.1-2.7-1.1z" style="enable-background:accumulate" fill="#999" fill-rule="evenodd"/>
  <path id="path8062" d="m380.78 653.47c4.79 18.85 14.28 34.14 26.94 42.4v0.02c11.4 7.73 25.16 10.53 36.68 11.3 9.67 0.65 23.31-0.04 30.23-0.49 18.74-0.38 36.45-14.47 48.13-36.24-10.54-0.2-17.63-0.43-17.63-0.43l-0.25-0.23c-1.6 1-8.65 5.35-12.13 6.82-3.9 1.65-9.08 0.27-12.61-3.36-0.54-0.56-1.06-2.65-1.55-5.78-29.43-1.25-69.08-7.98-97.81-14.01z" style="enable-background:accumulate" fill="#333" fill-rule="evenodd"/>
  <path id="path3474" d="m574.61 590.61c-0.29 0-0.59 0.01-0.87 0.01-0.31 0.01-0.62 0.02-0.92 0.03-7.74 0.29-65.97 1.92-74.8 2.17 0 0.02 0.02 0.07 0.02 0.07s-1.93 4.46-0.89 7.81c1.05 3.36 3.69 3.63 3.69 3.63l0.01 0.04c0.09 0 63.91-2.51 72.38-2.82 3.61-0.13 7.77 0.35 11.11 1.98 3.35 1.64 6.08 4.14 7.79 9.48 2.03 6.36 2.95 14.1 3.6 22.99 1.07 3.63 12.41 11.17 10.88-0.8-0.68-9.25-1.47-17.22-4.11-25.5-2.53-7.92-7.73-13.2-13.37-15.95-4.95-2.43-10.09-3.13-14.52-3.14z" style="enable-background:accumulate" fill="#e2e3db" fill-rule="evenodd"/>
  <path id="path3486" d="m542.06 499.15c-19.37 0.07-35.17 13.7-36.96 31.4-1.81 0-4.28 0.41-4.28 2.6 0 2.5 1.72 3.06 4.2 3.06 1.26 18.57 17.81 33.61 38.02 34.02 21.04 0.42 38.12-15.15 38.12-34.76 0-19.62-17.08-35.88-38.12-36.31-0.32-0.01-0.65-0.01-0.98-0.01z" style="enable-background:accumulate" fill="#bababa" fill-rule="evenodd"/>
  <path id="path3488" style="enable-background:accumulate" d="m1156.1 1461.3a122.39 111.64 0 1 1 -244.77 0 122.39 111.64 0 1 1 244.77 0z" fill-rule="evenodd" transform="matrix(.26405 .0055118 0 .27796 268.16 122.69)" fill="#454545"/>
  <path id="path3490" style="enable-background:accumulate" d="m1156.1 1461.3a122.39 111.64 0 1 1 -244.77 0 122.39 111.64 0 1 1 244.77 0z" fill-rule="evenodd" transform="matrix(.23039 .0051460 0 .25951 300.6 150.29)" fill="#d7e3f4"/>
  <path id="path3505" style="enable-background:accumulate" d="m1156.1 1461.3a122.39 111.64 0 1 1 -244.77 0 122.39 111.64 0 1 1 244.77 0z" fill-rule="evenodd" transform="matrix(.17859 .0035027 0 .17664 396.37 209.2)" fill="#b3b3b3"/>
  <path id="path3499" style="enable-background:accumulate" d="m1156.1 1461.3a122.39 111.64 0 1 1 -244.77 0 122.39 111.64 0 1 1 244.77 0z" fill-rule="evenodd" transform="matrix(.16199 .0032883 0 .16583 413.04 225.38)" fill="#454545"/>
  <path id="path3501" d="m595.7 472.96c-0.79 8.77-8.05 15.77-16.8 15.58-9.29-0.21-16.83-8.12-16.83-17.66s7.54-17.12 16.83-16.91c8.55 0.19 15.62 6.92 16.68 15.44" style="enable-background:accumulate" fill="url(#radialGradient3786)" fill-rule="evenodd"/>
  <path id="path3512" d="m454.72 363.7l37.98-86.4c3.54-6.77 9.9-10.44 18.93-11.2l118.97-0.26c9.92 0.03 10.67 5.9 9.14 13.27l-24.33 88.97c-3.5 9.23-9.13 12.19-15.71 12.36l-138.29-3.09c-5.42-0.01-8.96-6.71-6.69-13.65z" style="enable-background:accumulate" fill="#5d536c" fill-rule="evenodd"/>
  <path id="path3235" d="m674.98 379.91c-1.76 0.44 0.06-0.08-0.07-0.04-3.42 0.88-36 10.3-36 10.3-2.52 0.7-4.33 1.66-5.54 3.08-1.21 1.41-1.68 3.16-1.82 5l-2.79 27.98c-0.09 0.57 0.14 1.14 0.6 1.49 0.47 0.34 1.08 0.4 1.6 0.16 0.52-0.25 0.86-0.76 0.89-1.33l2.8-28.03c0.01-0.01 0.01-0.03 0.01-0.04 0.11-1.49 0.41-2.44 1.07-3.21 0.67-0.77 1.84-1.49 4.02-2.1h0.01l36-10.3c0.78-0.2 0.95-0.84 0.83-1.63-0.11-0.79-0.81-1.36-1.61-1.33z" style="enable-background:accumulate" fill="#fff" fill-rule="evenodd"/>
  <path id="path3514" d="m460.29 362.07l36.01-81.93c3.35-6.42 9.39-9.91 17.95-10.63l112.81-0.24c9.4 0.02 10.11 5.59 8.67 12.58l-23.08 84.38c-3.32 8.75-8.65 11.56-14.89 11.72l-131.12-2.93c-5.15-0.01-8.5-6.36-6.35-12.95z" style="enable-background:accumulate" fill="#6d6f84" fill-rule="evenodd"/>
  <path id="path3518" d="m603.42 348.98l9.15-63.65-40.17-2.18c-4.46 0.19-6.22 3.35-6.54 8.09l-13.29 54.62 50.85 3.12z" style="enable-background:accumulate" fill="#d5e5ff" fill-rule="evenodd"/>
  <path id="path3524" d="m478.33 267.01c15.61-0.39 10.46 5.9 9.69 10.79l-22.79 52.62-14.42 32.92c-5.98 11.88-11.45 13.28-16.85 12.99l-66.05-3.52c-7.55 0.51-6.97-4.74-3.42-12.11l43.93-81.69c4.17-7.22 8.79-9.58 13.54-10.68l56.37-1.32z" style="enable-background:accumulate" fill="#5d536c" fill-rule="evenodd"/>
  <path id="path7919" d="m480.23 268.85c-0.44 0-0.9 0.01-1.38 0.02l-53.76 1.28c-4.52 1.07-8.94 3.34-12.91 10.31l-41.89 78.9c-3.39 7.12-3.94 12.2 3.26 11.7l62.99 3.41c2.64 0.14 5.3-0.15 8.04-2.01 2.02-1.97 4.09-4.87 6.22-9.12l14.42-32.92 22.8-52.62c0.27-1.76 1.12-3.7 1.36-5.44l-0.01 0.03c-0.4-2.04-2.54-3.52-9.14-3.54z" style="enable-background:accumulate" fill="#6d6f84" fill-rule="evenodd"/>
  <path id="path3534" d="m419.25 280.44c-3.5623 0.012-6.8532 0.47056-9.0206 2.2771l-40.306 75.912c-3.3881 7.1179-3.9362 12.196 3.26 11.697l10.412 0.5644 0.0194-0.0292 42.155-90.149c-2.1506-0.12413-4.3824-0.27971-6.5199-0.27247zm10.909 0.50601-41.464 90.217 25.019 1.3526c4.2972-17.861 18.093-30.945 34.438-30.945 3.6573 0.00001 7.185 0.65156 10.51 1.8684l0.17514-0.01 6.0235-13.74 20.241-46.748-54.942-1.9949zm17.993 65.724c-0.81157 0-1.6188 0.0393-2.4133 0.11677-0.24801 0.0242-0.4934 0.056-0.73954 0.0876-0.95889 0.12293-1.9038 0.29448-2.8318 0.52547-0.83797 0.20862-1.6631 0.46585-2.4716 0.75903l4.0189 18.937 5.4105-0.88553 7.6195-17.993c-3.0774-0.80754-6.6849-1.5472-8.5925-1.5472zm-11.619 2.8804c-2.6807 1.3959-5.1396 3.2554-7.3081 5.4981-4.0178 4.1552-7.0254 9.6154-8.5341 15.803l19.686-3.2112-3.8437-18.09z" style="enable-background:accumulate" fill="#d5e5ff" fill-rule="evenodd"/>
  <path id="path3551" d="m422.89 493.72c-3.07 31.43-22.93 55.36-44.33 53.43s-36.28-29-33.21-60.42c3.07-31.43 22.93-55.36 44.33-53.43 21.41 1.93 36.28 29 33.21 60.42z" style="enable-background:accumulate" fill="#fff" fill-rule="evenodd"/>
  <path id="path3553" d="m418.18 493.74c-2.88 29.92-21.54 52.71-41.65 50.87s-34.09-27.61-31.2-57.53c2.88-29.92 21.54-52.71 41.65-50.87s34.09 27.61 31.2 57.53z" style="enable-background:accumulate" fill="#b3b3b3" fill-rule="evenodd"/>
  <path id="path3555" d="m396.47 445.58c-18.44 0.36-35.02 19.44-37.68 44.13-2.8 25.91 10.77 48.22 30.28 49.81 1.96 0.16 3.91 0.1 5.83-0.15l0.04-0.01c12.03-8.26 21.28-25.29 23.24-45.62 1.81-18.74-3-35.85-11.79-46.48-2.28-0.84-4.68-1.39-7.18-1.59-0.92-0.08-1.83-0.11-2.74-0.09z" style="enable-background:accumulate" fill="#878787" fill-rule="evenodd"/>
  <path id="path3557" d="m414.12 492.76c-2.07 21.08-15.47 37.15-29.91 35.85-14.43-1.29-24.47-19.46-22.4-40.55s15.47-37.15 29.91-35.86c14.43 1.3 24.47 19.47 22.4 40.56z" style="enable-background:accumulate" fill="#fff" fill-rule="evenodd"/>
  <path id="path3559" d="m382.83 489.74c-0.67 7.04-5.02 12.41-9.71 11.97-4.69-0.43-7.95-6.5-7.28-13.54 0.68-7.05 5.03-12.41 9.72-11.98 4.68 0.43 7.94 6.5 7.27 13.55z" style="enable-background:accumulate" fill="#b3b3b3" fill-rule="evenodd"/>
  <path id="path3575" d="m339.19 573.42c-1.21 0.07-2.73 1.44-2.93 4.47-0.25 3.76 2.36 5.33 3.71 5.57-0.14 0.14 2.83 1.38 14.25 4.02 10.42 2.4 24.61 4.9 39.8 6.75 29.9 3.65 51.72 6.57 79.89 8.4l0.01-0.06c-0.11-2.55-0.19-4.38-0.21-4.83-0.1-2.09 0.41-3.93 1.4-5.46-21.54-1.41-41.64-3.97-62.86-6.55l-0.11-0.06c-23.65 4.47-40.63-2.07-49.96-7.39l-0.05 0.04c-11.79-1.79-22.18-4.75-22.18-4.75-0.23-0.11-0.48-0.17-0.76-0.15z" style="enable-background:accumulate" fill="#e2e3db" fill-rule="evenodd"/>
  <path id="path3581" d="m332.11 563.68c-0.02 0-0.04 0-0.06 0.01-1.46 0.36-6.56 1.63-6.56 1.63v0.01c-3.99 1.29-5.28 5.83-5.1 8.74s2.55 66.1 2.73 69.01c0.18 2.92 2.74 6.73 6.56 6.01 3.82-0.73 9.83-1.46 12.38-1.82 2.22-0.32 2.78-2.29 2.89-2.8-0.89-0.36-1.39-0.65-1.43-0.84-0.41-1.93-6.75-10.02-6.75-13.84s4.56-16.21 7.48-19.49c2.91-3.28 9.39-3.44 9.39-3.44l-11.56-22.48-0.02-0.07c-1.56-0.51-2.15-0.79-2.09-0.85-1.35-0.24-3.96-1.81-3.71-5.57 0.21-3.19 1.89-4.53 3.11-4.46l-2.43-4.29c-1.75-2.55-3.84-5.33-4.75-5.46-0.03-0.01-0.05-0.01-0.08 0z" style="enable-background:accumulate" fill="#999" fill-rule="evenodd"/>
  <path id="path3587" d="m314.24 563.28s0.9 6.82 6.12 9.85" style="enable-background:accumulate" fill="none"/>
  <path id="path3591" d="m321.07 591.93s-1.94 0.25-4.45 5.98-4.63 13.46-4.76 15.52 3.99 12.81 5.92 14.74c1.85 1.86 4.54 4.65 4.76 4.88l0.15-0.26c-0.43-10.95-1.07-27.69-1.58-40.84l-0.04-0.02zm1.47 41.12l-0.06 0.1 0.19 0.05s-0.12-0.14-0.13-0.15z" style="enable-background:accumulate" fill="#ccc" fill-rule="evenodd"/>
  <path id="path3621" d="m816.73 435.22c-1.52 0-2.83 1.34-3.39 3.26l0.65-0.12c-1.19 0.35-2.38 0.7-3.14 0.84-4.68 0.65-7.8 1.07-12.52 1.37-1.58 0.09-3.1 0.44-3.19 2.02s0.83 2.24 2.39 2.51c5.22-0.1 10.59 0.26 15.79-0.23 0.37 0.04 0.79 0.05 1.21 0.03 0.62 0.66 1.38 1.06 2.2 1.06 2.04 0 10.02-2.59 10.02-5.56 0.13-0.41 0.18-0.86 0.13-1.32-0.14-1.35-1.13-2.42-2.4-2.72-1.85-1.19-6.87-1.14-7.75-1.14z" style="enable-background:accumulate" fill="#fff"/>
  <path id="path4289" d="m1095.3 550.74c0.2 2.31 0.3 4.68 0.3 7.08 0.9 0.4 2.4 1 13.7 5.6 7.8 3.13 16.2 6.44 18.3 7.18 4.1 1.49 11.9 3.21 24.2 4.06 3.1-2.67 3-6.37 0.9-6.69-12.1-0.84-19.6-2.7-23.8-4.16-2.1 0.23-2.9-0.44-3.3-1.08l-0.2-0.07c-3.6-1.42-9.6-3.74-15-5.9-7.8-3.1-15-5.97-15.1-6.02z" style="enable-background:accumulate" fill="#333" fill-rule="evenodd"/>
  <path id="path4324" d="m1134.8 530.76c-0.2 1.33-0.5 2.67-0.7 4.01 2-0.48 4.1-1.02 5.2-1.35 2-0.64 0-1.42-0.7-1.54-0.5-0.11-2.8-0.81-3.8-1.12z" style="enable-background:accumulate" fill="#6a6a6a"/>
  <path id="path6924" d="m811.34 612.7c2.07-4.68-0.03 0.22-1.99-0.88l-2.4 1.95c0.2 0.55 3.03 8.35 3.05 8.99 0.81-0.88 1.31-9.53 1.34-10.06z" style="enable-background:accumulate" fill="#918a6f"/>
  <path id="path3878" style="enable-background:accumulate" d="m2752.2 1575a11.158 31.062 0 1 1 -22.3 0 11.158 31.062 0 1 1 22.3 0z" fill-rule="evenodd" transform="matrix(.31080 .019196 -.019196 .31080 253.01 28.745)" fill="#b3b3b3"/>
  <path id="path7092" d="m317.69 557.1c1.08 0.36 2.24 2.06 2.5 3.92 0.2 1.43 0.59 3.89 2.82 5.9 0.74-0.82 1.3-1.21 2.48-1.59v-0.01s0.37-0.1 0.41-0.11v-0.01s-1.75-0.83-3.1-4.11c-1.32-3.2-2.03-3.96-5.11-3.99z" style="enable-background:accumulate" fill="#b3b3b3"/>
  <path id="path7121" d="m312.28 615.71c1.08 3.9 3.97 10.94 5.5 12.46 1.85 1.86 4.54 4.65 4.76 4.88l0.15-0.26c-0.11-2.78-0.26-6.98-0.4-10.35-4.5-2.45-7.73-4.7-10.01-6.73zm10.26 17.34l-0.06 0.1 0.19 0.05s-0.12-0.14-0.13-0.15zm14.39-4.8c-0.1 0.6-0.16 1.12-0.16 1.54 0 3.82 6.34 11.91 6.75 13.84 0.57 2.68 83.53 21.65 135.07 23.85-0.56-3.5-1.08-8.33-1.56-13.8-30.83-2.84-105.77-14.84-140.1-25.43zm358.87 12.91c-73.22 16.16-159.49 14.45-196.05 13.47 0.05 0.54 0.09 1.07 0.16 1.56 0.88 7.05 4.4 13.16 4.4 13.16l0.88 0.7s65.62 2 99.09-0.65c33.47-2.64 76.19-9.25 83.23-12.77 6.12-3.06 7.93-11.11 8.29-15.47z" style="enable-background:accumulate" fill="#ababab" fill-rule="evenodd"/>
  <path id="rect3641" d="m334.77 340.47c-0.19-1.99 0.55-4.7 1.38-4.78l4.7-0.44c0.83-0.08 1.44 1.49 1.83 3.44 0.52 2.63 2.94 27.31 2.94 27.31 0.19 1.98-0.33 3.64-1.16 3.72l-3.43 0.4" style="enable-background:accumulate" fill="none"/>
  <path id="path4239" opacity=".62705" d="m1110.2 504.74c-0.4 0.02-0.7 0.04-1.1 0.09-5.7 0.77-52.1 9.95-58.9 10.82-6.7 0.85-11.1 6.68-11.8 9.93-2.5 7.18-2.3 9.9-3.2 16.42 2-6.05 2.5-7.25 4.8-14.1 0.7-3.25 4.8-6.5 11.5-7.35 6.8-0.87 52-9.53 57.7-10.31 5.6-0.77 5.6-0.25 6.4 3.35 0.7 3.39 1.3 17.64 1.8 24.04 0.1-0.35 0.2-0.65 0.1-0.86-0.5-5.67 0.7-21.37-0.1-24.98-0.7-3.38-2.4-7.22-7.2-7.05z" style="enable-background:accumulate" fill="#bbbfb0"/>
  <path id="path6915" d="m827.9 521.78c0-0.04-0.13-0.44-0.46-0.37l-92.18 15.57c-12.37 0.56-14.76 9.43-17.44 18.06l-14.94 41.73c-10.48 21.97-8.81 18.11-26.6 21.18-7.41 1.27-42.38 6.33-66.2 6.22" style="enable-background:accumulate" fill="none"/>
  <path id="path7900" d="m877.53 278.24-59.398 0.1557c-0.29513 1.4925-0.21768 3.5084 0.30165 6.189l0.01-0.0584 24.522 0.41844c2.503-0.20037 3.1939 1.13 2.6372 3.5226l-16.806 50.222c2.0081 12.893 4.1162 27.082 4.1162 27.082 0.39748 1.9227 0.78526 4.28 2.0047 6.0819 1.1026 0.23296 2.6252 0.32287 5.0018 0.24328l54.445-2.8999c8.3273-0.55402 7.7797-3.8684 7.2594-9.3321-1.1389-6.0079-2.2855-12.058-3.4546-18.139l-2.6955 0.0389c-1.9631 0.0456-2.1066-1.1825-2.0241-2.569l0.93417-16.582h0.0195c-2.4253-11.872-5.0465-23.782-8.0281-35.616-1.0762-4.2324-1.1637-8.5484-8.8456-8.758zm-51.049 46.057c0.11392 0.67487 0.2453 1.4239 0.36986 2.1798-0.12773-0.77342-0.25351-1.4922-0.36986-2.1798zm119.66 17.282c-17.21 0.0282-30.011 0.17315-30.196 0.17516 1.1992 7.7235 2.3909 15.339 3.1139 19.696l1.3331 4.2525c2.4266 1.753 6.0131 1.6238 9.3322 1.518 3.0798-0.0982 39.637-2.0734 44.578-2.3841 4.941-0.31076 4.2842-6.9393 3.4059-12.222-0.21796-1.3108-0.97784-5.4048-2.0241-10.938-7.4608-0.0603-14.923-0.0939-21.924-0.0973-2.6148-0.001-5.1609-0.004-7.6195 0zm46.437 0.32113-0.01 0.0292c1.1509 6.4197 2.2051 12.431 2.7538 15.969 0.28476 1.8245 0.80195 3.2081 1.4695 4.2622 5.0487-0.32825 40.754-2.4133 44.948-2.3549 6.0558 0.0857 6.1188-3.289 5.3034-7.2302l-0.029-0.0195c-4.0011-4.6054-10.662-8.626-21.739-9.4781-7.9412-0.61085-19.562-0.95649-32.696-1.1775z" style="enable-background:accumulate" fill="#6d6f84" fill-rule="evenodd"/>
  <path id="path3201" d="m907.65 278.96c-1.04 0.02-1.89 0.21-2.57 0.54h-0.01c-0.81 3.24 0.4 7.34 0.4 7.34-0.22 0 5.83 24.55 6.49 28.96 0.39 2.61 2.2 14.46 3.99 25.96 0.21 0 16.9-0.19 37.81-0.18 7.01 0.01 14.47 0.04 21.93 0.1-3.17-16.76-8.98-46.87-10.38-53.8-1.87-9.22-10.21-8.08-11.75-8.08s-37-0.52-45.45-0.83c-0.16 0-0.31-0.01-0.46-0.01zm74.95 2.25c-0.83 3.09 0.29 7.14 0.29 7.14-0.19 0 4.25 22.19 4.83 26.33 0.37 2.66 2.77 15.66 4.85 27.25l0.01-0.03c13.12 0.23 24.72 0.57 32.72 1.18 11.1 0.85 17.7 4.88 21.7 9.48v0.02c-0.2-1.04-0.4-2.12-0.7-3.19-1.1-4.91-10.2-51.65-11.9-60.3-1.6-8.22-6.8-7.27-8.1-7.27-1.2 0-29.66-0.33-43.7-0.61zm-164.16 3.32l-0.01 0.06c0.04 0.2 0.08 0.39 0.12 0.59 0 0 5.55 25.55 7.53 36.78 0.68 3.81 1.69 10.11 2.72 16.73l22.34 0.51c0.29-0.01 8.15-51.12 7.97-51.26 0.55-2.39-1.99-3.19-4.49-2.99l-36.18-0.42zm72.64 21.94l-2.79 32.73c-0.08 1.39 0.06 2.61 2.02 2.57l7.86-0.04c-1.22-6.34-2.46-12.73-3.77-19.11l-3.32-16.15zm156.02 51.01c-0.1 0.08-0.1 0.16-0.1 0.23 0-0.08 0-0.15 0.1-0.23zm-2.3 1.95c-0.1 0.03-0.2 0.05-0.2 0.08 0-0.02 0.1-0.05 0.2-0.08z" style="enable-background:accumulate" fill="#d5e5ff" fill-rule="evenodd"/>
  <path id="path7959" d="m494.81 284.35l-34.52 77.73c-0.35 1.07-0.56 2.13-0.63 3.16l53.81-7.32 16.87-66.47c0.97-3.59-0.12-6.03-5.48-6.1l-30.05-1z" style="enable-background:accumulate" fill="#d5e5ff"/>
  <path id="path7946" d="m466.46 348.05l-2.3 5.22h0.03c4.9 4.16 8.56 10.24 10.51 17.34 0 0 0.31 1.93 0.64 4.6l7.23 0.17c-0.29-2.8-0.59-5.61-0.59-5.61-2.95-9.18-8.47-16.85-15.52-21.72z" style="enable-background:accumulate" fill="#6d6f84" fill-rule="evenodd"/>
  <path id="path3209" d="m736.95 284.62l-14.43 64.85s22.68 0.43 26.2 0.43c3.38 0 6.76 1.43 7.61 3.49l-12.19-68.64-7.19-0.13z" style="enable-background:accumulate" fill="#d5e5ff" fill-rule="evenodd"/>
  <path id="path8094" d="m336.25 578.43c0.02 3.37 2.44 4.8 3.72 5.03-0.14 0.14 2.83 1.38 14.25 4.02 10.42 2.4 24.61 4.9 39.8 6.75 29.9 3.65 51.72 6.57 79.89 8.4l0.01-0.06c-0.11-2.48-0.18-4.2-0.2-4.71-1.11-0.11-2.27-0.21-3.5-0.32l-0.02 0.06c-28.17-1.83-49.98-4.75-79.88-8.4-15.2-1.85-29.38-4.35-39.81-6.75-11.42-2.64-14.38-3.89-14.25-4.02h-0.01z" style="enable-background:accumulate" fill="#a1a29c" fill-rule="evenodd"/>
  <path id="path2484" d="m674.99 379.91c-0.03 0.01-0.02 0.01-0.05 0.01 0.03 0.09 0.05 0.17 0.06 0.26 0.11 0.79-0.06 1.43-0.83 1.62l-35.99 10.31h-0.01c-2.19 0.61-3.36 1.33-4.02 2.1-0.67 0.77-0.96 1.72-1.07 3.21-0.01 0.01-0.01 0.03-0.01 0.04l-2.81 28.03c-0.02 0.57-0.37 1.08-0.89 1.33-0.18 0.08-0.37 0.12-0.56 0.13 0.1 0.3 0.3 0.57 0.56 0.76 0.46 0.35 1.06 0.41 1.59 0.17 0.52-0.25 0.86-0.76 0.89-1.33l2.8-28.03c0.01-0.01 0.01-0.03 0.01-0.04 0.11-1.49 0.41-2.44 1.07-3.21 0.67-0.77 1.84-1.49 4.02-2.1h0.01l36.01-10.31c0.77-0.19 0.94-0.83 0.82-1.62-0.11-0.79-0.8-1.36-1.6-1.33z" style="enable-background:accumulate" fill="#5d536c" fill-rule="evenodd"/>
  <path id="path3605" d="m341.76 393.34c0-0.74-0.01-1.48-0.01-2.22-0.03-5.36-0.11-10.81-0.28-15.14-0.09-2.16-0.2-4.04-0.34-5.51-0.06-0.74-0.15-1.38-0.24-1.91-0.09-0.54-0.15-0.92-0.41-1.43-1.64-3.28-7.18-13.37-7.18-13.37-0.28-0.52-0.82-0.83-1.41-0.82-0.55 0.02-1.05 0.32-1.32 0.8-0.27 0.49-0.26 1.07 0.02 1.55 0 0 5.66 10.32 7.11 13.23-0.06-0.12 0.06 0.16 0.13 0.57s0.14 0.98 0.2 1.67c0.13 1.37 0.24 3.22 0.32 5.35 0.17 4.26 0.25 11.76 0.28 17.09m-0.01 13.45c-0.03 3.32 0.04 1.8 0.04 1.8-0.01 0.56 0.28 1.08 0.75 1.37 0.48 0.29 1.08 0.29 1.57 0.02 0.48-0.27 0.79-0.79 0.79-1.35 0 0-0.06 1.45-0.04-1.83" style="enable-background:accumulate" fill="#cbcbcb" fill-rule="evenodd"/>
  <path id="path3259" d="m1153.4 546.74c-0.4 1.12-2.3 1.3-2.3 1.3s-22.5 4.49-25.2 4.49h-3.7c0 0.33-0.1 0.61 0 0.83 0.1 2.19 2.8 8.13 3.2 8.91 0.4 0.77 1 2.06 4.4 1.42 3.3-0.65 15.8-3.1 17.2-3.49 1.4-0.38 1.7-0.92 3-3.11s3.4-6.18 3.4-9.35v-1z" style="enable-background:accumulate" fill="#ababab" fill-rule="evenodd"/>
  <path id="path3753" d="m1070.1 569.45c-1.1467 2.3509-1.495 2.4021-2.0384 2.8887-0.6157 0.55133-1.9337-0.74989-3.133 0.27995-2.1829 1.8745-4.0323-0.66855-6.0473-1.5507-2.015-0.88213-2.0138 0.0535-3.2452 0.43944-1.2315 0.38592-1.2817 0.54932-2.6769-0.48867-0.3213-0.23893-1.5328-1.2561-2.1294-2.8271-0.8412 8.2799-0.017 17.622 5.0544 24.276 2.2934 3.1342 8.5227 2.527 11.198-0.41579 3.5291-2.8518 6.2884-6.5317 8.1016-10.614-0.2019 0.0658-0.4132 0.13495-0.6339 0.1756-4.3585-0.0479-4.8491-5.6358-4.9124-8.897 0.1276-1.5074 0.1302-1.567 0.4624-3.2662z" style="enable-background:accumulate" fill="url(#linearGradient3755)" fill-rule="evenodd"/>
  <path id="path3790" d="m383.97 485c1.2371 3.9901 1.7685 4.1518 2.5021 5.0485 0.83125 1.016 3.1939-0.7404 4.8234 1.1689 2.966 3.4752 6.4498-0.12565 9.8017-1.0567 3.3519-0.93107 3.1301 0.551 4.9611 1.4475 1.831 0.89653 1.8711 1.167 4.2924-0.15443 0.55737-0.3042 1.1164-2.4401 2.4167-4.791 0.79423 13.517-4.4535 26.729-13.979 36.089-4.3157 4.4347-11.938 4.0363-15.422-1.2454-9.1409 4.3377-22.547-12.342-20.48-32.555-0.648 1.629 1.513-1.4047 1.7223 1.049 0.41538 4.8714 1.5758 7.5298 3.1588 9.829 1.4097 2.0474 4.6467 4.1703 8.871 2.7044 3.4511-1.1976 6.4194-7.0998 7.2848-12.252 0.15516-2.4178 0.16495-2.5128 0.0459-5.2818h0.00005z" style="enable-background:accumulate" fill="url(#linearGradient3792)" fill-rule="evenodd"/>
  <path id="path3841" d="m591.85 474.26c-0.55018 5.9716-5.5868 10.745-11.664 10.612-6.4442-0.14126-11.674-5.5299-11.674-12.028 0-6.4983 5.2301-11.658 11.674-11.516 5.9363 0.13015 10.842 4.7131 11.579 10.514" style="enable-background:accumulate" fill="url(#radialGradient3843)" fill-rule="evenodd"/>
  <path id="path3853" opacity=".60656" style="color:#000000;enable-background:accumulate" d="m584.7 465.04a8.2422 6.8685 0 1 1 -16.484 0 8.2422 6.8685 0 1 1 16.484 0z" fill-opacity=".61667" transform="matrix(1.0967 -.94509 .83502 .98739 -444.95 551.79)" filter="url(#filter3863)" fill="#fff"/>
  <path id="path3867" opacity=".92623" style="color:#000000;enable-background:accumulate" d="m584.7 465.04a8.2422 6.8685 0 1 1 -16.484 0 8.2422 6.8685 0 1 1 16.484 0z" fill-opacity=".61667" transform="matrix(1.9772 -1.9621 1.5054 2.0499 -1303.1 710.99)" filter="url(#filter3863)" fill="#fff"/>
  <path id="path3893" d="m1087.3 392.18s0.096 2.7728 0.8452 3.194c1.3355 0.75076 2.6035 0.30421 4.6758 0.13571 2.9561-0.24038 22.414-1.5858 24.159-1.7286 1.7447-0.14274 2.6794-1.2214 2.667-3.7723l-0.135-0.13361-32.212 2.3047z" style="enable-background:accumulate" fill="#76705a"/>
  <path id="path3895" d="m1087.9 401.52s0.096 2.7728 0.8452 3.194c1.3355 0.75076 2.6035 0.30421 4.6758 0.13571 2.9561-0.24038 22.414-1.5858 24.159-1.7286 1.7447-0.14274 2.6794-1.2214 2.667-3.7723l-0.135-0.13361-32.212 2.3047z" style="enable-background:accumulate" fill="#76705a"/>
  <path id="path3897" d="m1091.5 418.65s0.096 2.7728 0.8452 3.194c1.3355 0.75076 2.6035 0.30421 4.6758 0.13571 2.9561-0.24038 22.414-1.5858 24.159-1.7286 1.7447-0.14274 2.6794-1.2214 2.667-3.7723l-0.135-0.13361-32.212 2.3047z" style="enable-background:accumulate" fill="#76705a"/>
  <path id="path3899" d="m1092 428s0.096 2.7728 0.8452 3.194c1.3355 0.75076 2.6035 0.30421 4.6758 0.13571 2.9561-0.24038 22.414-1.5858 24.159-1.7286 1.7447-0.14274 2.6794-1.2214 2.667-3.7723l-0.135-0.13361-32.212 2.3047z" style="enable-background:accumulate" fill="#76705a"/>
  <path id="path3917" opacity=".66803" style="color:#000000;enable-background:accumulate" d="m584.7 465.04a8.2422 6.8685 0 1 1 -16.484 0 8.2422 6.8685 0 1 1 16.484 0z" fill-opacity=".61667" transform="matrix(.32493 -.28001 .24740 .29254 285.42 505.11)" filter="url(#filter3863)" fill="#fff"/>
  <metadata>
    <rdf:RDF>
      <cc:Work>
        <dc:format>image/svg+xml</dc:format>
        <dc:type rdf:resource="http://purl.org/dc/dcmitype/StillImage"/>
        <cc:license rdf:resource="http://creativecommons.org/licenses/publicdomain/"/>
        <dc:publisher>
          <cc:Agent rdf:about="http://openclipart.org/">
            <dc:title>Openclipart</dc:title>
          </cc:Agent>
        </dc:publisher>
        <dc:title>Camper Van</dc:title>
        <dc:date>2010-05-20T03:49:11</dc:date>
        <dc:description>Reto-styled camper van. Perfect for summer days.</dc:description>
        <dc:source>http://openclipart.org/detail/61345/camper-van-by-djcowan</dc:source>
        <dc:creator>
          <cc:Agent>
            <dc:title>djcowan</dc:title>
          </cc:Agent>
        </dc:creator>
        <dc:subject>
          <rdf:Bag>
            <rdf:li>bus</rdf:li>
            <rdf:li>camper</rdf:li>
            <rdf:li>campervan</rdf:li>
            <rdf:li>camping</rdf:li>
            <rdf:li>car</rdf:li>
            <rdf:li>clip art</rdf:li>
            <rdf:li>clipart</rdf:li>
            <rdf:li>get away</rdf:li>
            <rdf:li>hippy</rdf:li>
            <rdf:li>holiday</rdf:li>
            <rdf:li>love</rdf:li>
            <rdf:li>motor</rdf:li>
            <rdf:li>peace</rdf:li>
            <rdf:li>seventies</rdf:li>
            <rdf:li>sixties</rdf:li>
            <rdf:li>travel</rdf:li>
            <rdf:li>trip</rdf:li>
            <rdf:li>vacation</rdf:li>
            <rdf:li>van</rdf:li>
            <rdf:li>vehicle</rdf:li>
            <rdf:li>wheels</rdf:li>
          </rdf:Bag>
        </dc:subject>
      </cc:Work>
      <cc:License rdf:about="http://creativecommons.org/licenses/publicdomain/">
        <cc:permits rdf:resource="http://creativecommons.org/ns#Reproduction"/>
        <cc:permits rdf:resource="http://creativecommons.org/ns#Distribution"/>
        <cc:permits rdf:resource="http://creativecommons.org/ns#DerivativeWorks"/>
      </cc:License>
    </rdf:RDF>
  </metadata>
</svg>
