<?xml version="1.0" encoding="utf-8"?>
<!-- Generator: Adobe Illustrator 23.0.3, SVG Export Plug-In . SVG Version: 6.00 Build 0)  -->
<svg version="1.1" id="Capa_1" xmlns="http://www.w3.org/2000/svg" xmlns:xlink="http://www.w3.org/1999/xlink" x="0px" y="0px"
	 viewBox="0 0 1200 1200" enable-background="new 0 0 1200 1200" xml:space="preserve">
<g>
	<path d="M1102.349,526.615c1.214,13.35-6.664,25.304-13.785,35.906c-10.122,15.068-16.946,29.128-18.045,47.654
		c-1.076,17.93,1.008,35.883,1.282,53.814c0.069,5.015-4.168,8.679-8.931,8.908c-15.274,0.756-27.914,0.595-41.654,8.496
		c-11.633,6.71-22.304,15.343-33.09,23.312c-8.29,6.114-17.449,11.541-28.029,7.923c-10.144-3.481-17.358-14.083-23.632-22.19
		c-8.106-10.442-16.9-19.854-26.449-28.968c-9.938-9.503-18.915-14.518-32.151-17.999c-17.633-4.649-35.861-12.641-48.18-26.586
		c-13.19-14.885-18.709-34.143-24.182-52.829c-3.16-10.786-6.939-21.068-11.175-31.12c-0.572-0.069-1.168-0.183-1.809-0.366
		c-34.235-10.328-70.118-11.267-105.658-9.893c-18.342,0.71-36.479,2.588-54.707,4.626c-11.221,1.259-23.128,3.114-34.693,2.679
		c-0.16,0.962-0.641,1.924-1.557,2.771c-0.046,0.046-0.092,0.069-0.16,0.115c-3.435,8.061-15.32,13.373-22.945,14.518
		c-10.534,1.58-20.999-2.175-29.014-8.999c-1.649-1.42-3.183-2.931-4.626-4.534c-31.968,6.526-63.5,14.862-95.651,20.632
		c-16.625,2.977-33.433,5.656-49.188,11.999c-15.846,6.366-19.121,20.541-24.182,35.265c3.985,0.023,7.992,0.16,12.068,0.527
		c1.511,0.16,2.656,0.985,3.32,2.061c0.435,0.298,0.847,0.664,1.168,1.168c4.923,7.534,2.588,17.77,2.473,26.472
		c-0.092,7.19,0.641,15.022-0.206,22.373c1.191,1.42,1.809,3.389,1.466,5.519c-1.466,9.068-12.503,13.305-23.289,15.297
		c0.572,27.617,41.265,22.396,59.859,18.8c13.969-2.702,45.616-11.633,60.157-1.168c21.297-24.457,59.516-23.77,73.965,7.122
		c11.404,24.342-1.557,52.531-26.289,61.943c-4.786,1.809-9.755,2.771-14.724,2.977c0.893,3.297,1.328,6.572,1.992,9.984
		c0.298,1.58,0.664,3.298,0.779,4.992c25.579,3.023,50.539,8.816,73.507,19.762c15.526,7.397,27.456,20.632,18.228,34.166
		c1.145,0.595,2.29,1.282,3.412,2.061c0.183-0.069,0.366-0.137,0.573-0.16c28.372-2.221,56.882-10.396,85.507-9.251
		c17.175,0.71,31.143,8.313,37.486,24.8c6.687,17.381,4.626,36.777,4.099,54.959c-0.229,8.175-0.046,16.419,0.962,24.548
		c0.595,4.832,0.801,12.526,6.572,14.106c4.969,1.374,13.534-3.366,18.365-4.786c0.824-0.252,1.58-0.298,2.29-0.275
		c5.954-6.87,14.908-9.893,23.312-3.137c1.466-6.274,5.473-11.106,14.015-12.411c23.999-3.687,48.822-1.626,72.591-7.145
		c3.389-0.802,6.687,1.03,7.717,4.374c4.786,15.411,5.748,32.586,7.328,48.593c0.389,3.87-3.298,6.114-6.526,6.526
		c-22.441,2.954-44.929,5.679-67.393,8.519c-2.565,0.321-5.794-2.267-6.206-4.74c-1.214-6.87-5.313-10.282-10.648-12.549
		c-1.511,8.862-6.893,16.419-17.152,18.365c-7.58,1.443-14.358-1.969-19.167-7.351c-6.939,5.038-22.968,4.534-28.166,3.824
		c-18.8-2.519-30.319-10.007-32.929-29.449c-3.939-29.54,2.244-59.859-5.038-89.01c-0.779-3.091-1.763-6.297-4.145-8.404
		c-3.229-2.84-7.992-2.794-12.297-2.565c-15.869,0.847-31.968,3.458-47.883,2.45c6.87,5.656,14.793,11.358,22.808,12.137
		c3.87,0.389,5.885,2.725,6.343,5.358c9.022,1.351,17.678,4.282,25.647,10.396c2.771,2.107,4.534,6.71,1.237,9.457
		c-8.038,6.664-16.442,16.511-25.716,21.274c-2.702,1.397-6.023,1.924-9.297,2.267c3.412,16.808,1.237,35.54,1.191,52.577
		c-0.023,15.984,2.702,35.151-0.824,51.043c0.824,1.099,1.099,2.611,0.321,3.916c-0.71,1.191-1.557,2.267-2.473,3.275
		c12.182-4.557,25.693-5.175,35.013,6.618c2.542,3.229,3.893,6.824,4.534,10.854c0.801,4.992-1.695,13.396,3.526,16.648
		c5.473,3.412,10.923,1.695,13.854,7.03c0.733,0.229,1.443,0.504,2.13,0.824c3.069,1.443,5.29,3.939,5.931,7.099
		c3.481,0.962,6.801,2.588,9.755,4.901c7.099,5.565,10.305,13.488,12.87,21.869c0.458,1.488,0.366,2.794-0.023,3.939
		c0.641,3.275-0.664,6.961-4.74,8.244c-18.228,5.702-37.693,2.885-56.516,3.389c-21.365,0.573-42.707,2.038-64.004,3.962
		c-42.616,3.801-85.026,9.526-127.596,13.831c-43.692,4.443-87.568,7.236-131.397,9.457c-20.884,1.076-41.746,1.947-62.653,2.633
		c-20.77,0.687-42.982,2.748-63.592-0.092c-0.847-0.115-1.488-0.55-1.901-1.168c-9.251,2.931-19.19-3.206-26.495-8.564
		c-11.518-8.45-21.571-18.8-31.372-29.151c-11.244-11.908-23.083-23.174-34.349-35.036c-13.785-14.541-28.876-29.403-41.013-45.57
		c-1.946-0.847-3.412-2.565-3.527-4.878c-0.206-0.298-0.435-0.573-0.641-0.87c-1.992-2.885,0.069-5.496,2.702-6.137
		c2.977-7.374,7.168-13.785,14.953-17.22c4.305-1.924,8.473-2.13,13.121-1.946c7.259,0.275,10.122,0.458,10.786-7.213
		c0.733-8.404,0.229-15.572,9.16-19.762c3.595-1.695,8.267-2.45,12.663-1.946c-3.412-17.404-1.03-36.822-0.962-54.363
		c0.046-9.824,0.092-19.648,0.229-29.495c0.137-9.32-0.824-19.396,2.702-28.166c0.252-0.641,0.618-1.122,1.053-1.511
		c-2.542-2.45-4.992-4.969-7.236-7.648c-8.473-10.144-11.61-23.243,3.183-28.808c9.389-3.526,20.266-3.87,30.181-4.465
		c12.297-0.733,25.785-3.297,38.402-2.427c0.137-1.786,1.03-3.595,3.046-5.061c22.281-16.213,49.325-21.022,76.141-23.701
		c-1.786-5.725-0.527-14.198-0.962-20.06c-0.847-11.244-1.878-22.487-2.84-33.731c-1.145-13.053-1.992-26.083-2.29-39.204
		c-0.229-10.19-1.03-21.045,0.389-31.304c-1.717-0.893-3.458-1.786-5.244-2.633c-2.542-1.191-3.641-4.717-2.954-7.259
		c4.145-15.091,5.267-29.838,6.435-45.364c0.092-1.259,0.71-2.29,1.557-3.046c0.092-0.16,0.16-0.344,0.275-0.527
		c4.786-7.809,14.289-6.458,22.487-4.145c2.13-24.457,8.999-47.127,27.685-64.462c20.403-18.915,47.631-31.968,72.477-43.898
		c22.121-10.602,45.364-18.8,67.302-29.701c6.252-3.114,21.823-13.259,32.861-13.763c6.87-19.785,20.953-34.166,45.043-22.121
		c1.008,0.504,1.74,1.259,2.244,2.153c13.121-7.099,24.411-17.037,36.021-26.54c14.495-11.839,30.136-22.075,44.517-34.029
		c15.388-12.801,29.998-26.449,43.417-41.311c7.923-8.771,16.373-24.983,27.937-31.143c2.382-1.237-19.052-42.089-21.365-45.066
		c-14.243-18.205,6.916-35.609,12.389-53.287c6.458-20.861,6.206-42.982,8.519-64.508c1.511-13.946,2.382-33.181,12.068-44.356
		c11.129-12.778,29.632-7.351,44.379-9.228c9.343-1.191,19.281-2.725,28.327-5.336c8.175-2.382,13.969-7.282,20.77-12.16
		c4.465-3.183,11.129-7.832,16.991-7.374c6.206,0.481,10.809,7.877,14.518,12.114c22.281,25.556,40.555,56.676,72.11,71.95
		c7.236,3.481,14.885,5.954,22.625,8.038c6.068,1.626,15.617,1.763,20.747,5.175c5.656,3.801,6.549,14.083,8.587,20.083
		c2.908,8.519,5.908,17.014,9,25.487c12.663,34.899,26.655,70.851,48.249,101.307c8.885,12.549,21.319,26.472,23.151,42.318
		c1.832,15.755-6.664,31.212-7.694,46.898c-2.267,34.922,8.496,76.301,26.861,106.139
		C1092.022,500.922,1101.09,512.875,1102.349,526.615z M1072.305,555.674c5.839-9.503,13.213-19.556,11.656-30.617
		c-0.939-6.549-4.946-12.205-8.564-17.747c-14.793-22.625-25.144-48.135-30.296-74.652c-1.008-5.175-2.13-10.923-6.412-13.992
		c-2.496-1.786-5.679-2.336-8.725-2.725c-60.386-7.855-119.421,17.197-178.112,33.41c-3.778,1.03-7.877,2.038-11.518,0.595
		c-3.664-1.443-6.045-6.458-3.504-9.435c1.122-1.305,2.84-1.878,4.488-2.404c55.989-17.862,113.284-35.929,172.044-34.441
		c-6.939-21.205,4.007-44.173,2.244-66.431c-1.786-22.396-16.075-41.563-29.792-59.355c-42.685,44.448-101.719,72.843-163.09,78.431
		c-6.091,0.55-14.976-2.496-12.824-8.221c60.042-6.572,117.635-33.662,160.983-75.729c2.382-2.29,4.809-4.786,5.771-7.946
		c0.962-3.229,0.275-6.687-0.412-9.984c-4.168-19.785-8.908-40.715-23.06-55.165c-12.022-12.297-29.105-18.022-45.639-22.831
		c-23.793,47.104-61.783,86.926-107.742,112.894c-3.389,1.924-7.122,3.824-10.992,3.275c-3.16-0.458-6.068-3.389-6.068-6.366
		c0-0.664,0.137-1.305,0.458-1.946c0.87-1.763,2.725-2.794,4.465-3.733c44.081-23.701,80.904-60.684,104.399-104.857
		c1.672-3.114,3.32-6.503,2.931-10.03c-0.343-3.046-2.153-5.702-4.122-8.038c-9.87-11.747-25.144-18.709-40.463-18.48
		c-5.336,0.092-12.938-1.145-12.938-6.091c0-0.229,0.023-0.458,0.046-0.687c22.212-10.877,52.234-0.847,63.454,21.159
		c2.015-5.61,4.007-11.244,6.023-16.877c-23.106-21.342-44.013-45.043-62.309-70.645c-8.862,5.61-17.747,11.198-26.632,16.785
		c8.725,15.48,13.327,32.861,14.152,50.493c1.832,39.318-15.091,79.919-46.875,103.483c-4.488,3.32-9.503,6.71-11.221,11.999
		c-1.305,4.007-0.435,8.358,0.229,12.526c1.328,8.152,1.878,16.442,1.672,24.708c-0.389,16.213-3.71,32.334-9.801,47.356
		c39.96,46.486,60.134,109.414,54.638,170.464c20.289,10.282,38.631,24.457,53.699,41.494c3.893,4.397,7.74,9.137,13.007,11.702
		c4.511,2.175,9.641,2.565,14.587,3.252c43.738,5.908,82.988,37.601,98.01,79.095c4.511-1.282,9.022-2.565,13.534-3.847
		c4.946-20.678,9.893-41.356,14.839-62.035c0.87-3.595,1.74-7.328,1.076-10.969c-0.641-3.641-2.748-6.847-5.061-9.732
		c-10.831-13.35-26.998-21.297-43.394-26.38c-41.242-12.801-85.552-9.732-128.26-16.075c-1.603-0.229-3.343-0.572-4.397-1.809
		c-3.137-3.778,3.549-7.923,8.473-8.267c37.097-2.542,74.538,0,110.971,7.557c27.983,5.816,57.707,16.281,72.82,40.555
		c5.015-6.732,10.053-13.465,15.068-20.197c-19.877-23.93-31.693-54.478-33.067-85.552c-0.252-5.473,4.534-13.259,8.427-9.412
		c3.595,32.769,15.572,64.599,34.441,91.621c1.168,1.695,2.427,3.527,2.382,5.587c-0.046,2.107-1.466,3.916-2.794,5.565
		c-23.289,28.968-37.326,65.241-39.616,102.338c-0.16,2.427-0.321,5.061-1.878,6.961c-1.855,2.267-5.084,2.748-8.015,3.137
		c-18.274,2.404-38.402,8.931-46.44,25.533c-4.305-5.702-2.359-14.312,2.427-19.625c4.786-5.313,11.679-8.106,18.342-10.74
		c-20.06-36.479-56.195-63.729-96.796-72.958c6.389,10.373,8.839,23.106,6.801,35.105c-0.275,1.58-0.664,3.206-1.786,4.351
		c-4.214,4.214-10.099-3.046-11.862-8.748c-9.412-30.319-29.563-57.18-56.035-74.698c-7.442-4.923-15.801-9.618-19.671-17.678
		c-2.885-6.045-2.748-13.03-2.794-19.739c-0.435-47.86-15.068-95.491-41.563-135.336c-3.091-4.626-6.412-9.366-7.351-14.839
		c-0.87-5.175,0.458-10.419,1.557-15.549c8.404-39.502,3.916-102.109-26.838-132.221c-4.557,15.343-19.854,30.639-19.19,47.15
		c0.275,6.229,3.046,12.022,5.771,17.633c16.671,34.395,33.616,71.309,28.991,109.253c-1.534,12.549-5.427,24.96-4.672,37.578
		c1.374,22.602,17.037,41.288,30.136,59.768c19.716,27.8,34.99,58.76,45.066,91.346c6.412,20.747,11.656,43.692,28.418,57.546
		c15.251,12.618,36.502,14.61,54.34,23.174c22.144,10.625,37.944,30.777,53.081,50.15c3.412,4.374,7.534,9.137,13.076,9.457
		c4.488,0.252,8.496-2.519,12.091-5.198c22.419-16.74,46.532-36.09,74.469-34.487c-3.824-17.77-3.847-36.296-0.366-54.157
		C1057.993,584.688,1063.833,569.414,1072.305,555.674z M1043.841,359.22c2.038-7.694,5.656-15.526,3.618-23.586
		c-2.221-8.748-9.206-17.381-14.221-24.686c-10.58-15.48-19.808-30.891-27.662-47.951c-0.71-1.511-1.351-3.023-2.038-4.534
		c-1.488,3.618-4.168,6.732-7.076,9.618c0.504,0.412,0.985,0.893,1.42,1.466c13.373,17.541,29.266,41.494,30.685,64.096
		c0.687,11.06-2.176,22.258-4.236,33.044c-1.328,7.053-2.633,14.129-2.817,21.319c-0.16,5.404,1.191,10.534,1.328,15.824
		c6.045,0.092,12.068,0.779,17.495,2.794C1038.895,390.775,1039.674,374.814,1043.841,359.22z M997.699,248.753
		c0.504-0.16,0.962-0.229,1.42-0.252c-12.412-28.762-22.739-58.348-31.83-88.346c-16.969-3.527-33.067-8.106-47.814-16.144
		c-0.641,2.679-1.557,5.725-2.359,8.106c-1.191,3.595-2.565,7.145-4.007,10.694c0.183,0.069,0.366,0.092,0.572,0.16
		c18.526,7.717,39.822,13.098,52.623,29.746c13.579,17.655,17.907,41.311,21.159,63.225
		C990.348,252.852,993.417,250.127,997.699,248.753z M885.285,964.384c-0.137-1.626-0.275-3.275-0.435-4.901
		c-2.679,0-5.427-0.275-8.061-0.412c-3.756-0.183-7.419,0.023-11.175,0.092c-2.839,0.046-3.595-2.84-2.404-4.717
		c0.344-0.55,0.893-1.03,1.58-1.305c5.519-2.175,12.755-3.114,19.121-2.931c-0.733-6.732-1.695-13.442-3.16-19.991
		c-17.701,2.656-35.952,2.313-53.768,2.931c-5.587,0.206-16.808-1.351-19.396,3.893c-1.328,2.656-1.466,6.572-1.58,10.442
		c7.648-1.58,15.686-1.763,23.357-2.748c10.007-1.282,20.243-2.794,30.342-2.153c4.443,0.275,5.633,6.732,1.076,7.969
		c-0.756,0.206-1.511,0.412-2.29,0.618c-11.679,3.137-26.311,7.007-39.731,7.397c4.786,2.931,8.656,7.557,10.831,12.984
		C848.165,969.147,866.714,966.697,885.285,964.384z M812.74,177.925c5.404-15.137,7.603-30.983,6.435-47.013
		c-1.191-16.121-6.824-30.113-10.305-45.478c-5.221,1.305-10.602,2.175-15.824,3.069c-11.015,1.901-21.09,2.038-32.197,2.427
		c-5.977,0.229-11.518,0.206-14.885,5.839c-2.015,3.343-2.633,7.717-3.458,11.496c-4.488,20.884-4.099,42.387-6.526,63.546
		c0.916,0.206,1.809,0.618,2.611,1.237c11.404,8.977,18.984,26.655,24.571,39.845c3.114,7.374,5.633,14.999,7.534,22.762
		c5.519-5.725,11.541-10.969,17.152-16.762C799.069,207.328,807.336,193.061,812.74,177.925z M794.008,967.796
		c2.862-5.702,0.733-14.243-2.885-19.144c-7.259-9.847-16.442,7.374-13.969,14.747C779.536,970.521,789.543,976.658,794.008,967.796
		z M783.612,509.578c-3.229-6.503-6.595-12.984-10.099-19.533c-6.16-11.496-12.389-23.083-19.762-33.845
		c-5.519-8.038-11.587-15.778-16.121-24.434c-10.167-19.419-8.106-37.876-3.343-58.554c4.855-21.113,2.267-43.394-3.984-65.149
		c-2.633,3.778-5.496,7.442-7.9,11.083c-5.221,7.969-11.267,15.205-17.655,22.235c-13.992,15.343-29.907,28.876-46.578,41.173
		c-16.236,11.976-33.113,23.403-49.875,34.624c-12.205,8.152-25.487,16.923-40.12,19.716c-5.473,8.198-8.496,19.602-8.977,31.487
		l-0.069,3.572c0.023,3.298,0.206,6.641,0.618,9.915c25.281-5.404,50.333-11.747,75.179-18.915
		c26.769-7.717,52.806-18.136,79.713-25.35c3.549-0.962,5.885,4.259,2.542,6.023c-24.296,12.686-51.363,20.678-77.56,28.418
		c-25.785,7.58-51.936,13.556-78.476,17.701c0.733,3.252,1.695,6.389,2.885,9.366c3.595,9.183,9.251,16.831,16.991,21.159
		c0.527-0.55,1.214-0.985,2.084-1.191c17.907-4.259,36.685-6.71,54.844-9.984c12.618-2.244,25.396-3.824,38.196-4.969
		c5.656-0.504,11.312-0.939,16.969-1.305c19.35-1.259,38.883-1.191,58.188,0.641C762.567,504.54,773.444,505.868,783.612,509.578z
		 M764.766,966.33c0.069-0.069,0.16-0.092,0.229-0.16c-0.779-2.977-1.145-6.16-0.985-9.297c-6.641,1.924-13.465,2.908-19.831-0.435
		c-7.557-3.984-9.549-12.434-10.602-20.243c-2.542-18.503,0.252-36.937,0.71-55.462c0.573-23.014-4.626-45.089-31.784-46.257
		c-26.083-1.122-52.325,8.061-78.27,6.252c3.343,2.931,6.458,6.045,9.274,8.358c0.71,0.573,1.42,1.191,2.175,1.809
		c0.412-1.099,1.42-2.015,3-2.198c14.06-1.626,28.121-3.16,42.181-4.763c7.419-0.847,15.961-2.336,23.06,0.893
		c15.32,6.939,16.167,33.342,17.747,47.287c1.488,13.328,1.397,26.655,1.58,40.028c0.137,8.519-1.397,24.296,5.061,30.8
		C735.225,969.926,757.003,972.628,764.766,966.33z M734.126,1103.223c-1.168-4.236-3.32-8.313-6.71-11.152
		c-1.374-1.145-2.794-1.901-4.282-2.45c-0.801,0.962-1.878,1.786-3.343,2.267c-15.457,5.244-33.067,1.649-49.119,3.068
		c-20.083,1.786-39.845,3.229-59.997,4.122c-40.509,1.786-80.492,9.183-120.611,14.564c-39.547,5.29-79.255,6.664-119.031,9.343
		c-39.593,2.656-81.27,7.007-120.955,3.504c-2.611,1.168-4.9,2.313-6.503,4.763c-0.366,0.527-0.664,1.076-0.939,1.649
		c-0.046,0.114-0.137,0.275-0.183,0.412c-0.046,0.115-0.069,0.229-0.092,0.344c0.092,0.16,0.206,0.344,0.366,0.595
		c0.55,0.962,0.801,1.969,0.87,3.023c0.435,1.351,0.366,2.588-0.023,3.641c18.823-2.656,38.815-2.084,57.638-2.931
		c20.907-0.962,41.769-2.084,62.653-3.435c42.364-2.679,84.751-5.977,127-10.396c41.837-4.351,83.514-10.213,125.397-14.404
		c20.541-2.061,41.127-3.687,61.76-4.534C696.113,1104.46,716.196,1107.254,734.126,1103.223z M706.051,1080.095
		c0.092-0.618,0.206-1.237,0.344-1.855c-8.725-1.58-17.22-6.481-19.694-15.228c-0.87-3.069-0.733-6.32-0.618-9.503
		c-16.671,1.076-33.41,4.534-50.104,5.771c-17.129,1.282-34.281,1.992-51.409,3.32c-36.296,2.862-72.5,7.809-108.979,6.87
		c-4.488-0.092-4.465-6.755,0-6.939c35.792-1.328,71.126-6.48,106.757-9.87c17.152-1.626,34.349-2.611,51.501-4.007
		c16.327-1.351,34.349-1.855,50.173-6.778c-0.756-1.076-1.717-2.107-3.046-3.046c-5.107-3.526-16.625-5.359-22.579-4.214
		c-1.832,0.344-3.412-1.099-3.756-2.633c-14.953,8.702-40.853,6.984-55.05,8.061c-16.281,1.237-32.494,4.214-48.707,6.137
		c-19.945,2.359-40.028,3.549-60.088,4.443c-39.524,1.74-79.141,2.175-118.619,5.084c-16.465,1.214-32.838,3.068-49.348,3.824
		c-15.32,0.71-31.487,0.572-46.074,5.771c-0.412,1.74-1.557,3.389-3.229,3.984c-4.328,1.557-7.053,3.939-7.145,8.335
		c39.662,1.397,83.606-2.634,122.214-8.313c3.412-0.504,4.763,4.007,1.42,5.221c-19.785,7.19-41.563,8.129-62.401,8.862
		c-20.77,0.756-41.608,4.099-62.401,3.778c0.366,4.168,1.168,8.427,1.374,12.022c0.527,8.839-2.908,14.518-8.977,19.144
		c17.243-1.282,34.601-1.557,51.821-2.771c19.831-1.374,39.593-3.366,59.401-4.786c40.349-2.931,80.698-4.465,120.795-10.099
		c38.837-5.427,77.515-12.205,116.696-14.541c18.732-1.099,37.189-1.603,55.875-3.755
		C676.488,1080.713,691.716,1082.179,706.051,1080.095z M665.588,903.815c5.908-4.511,11.587-9.435,17.266-14.312
		c-16.533-8.175-36.387-5.267-54.455-4.42c-57.294,2.679-114.474,7.007-171.746,10.19c-33.616,1.855-67.21,3.046-100.758,6.137
		c-19.075,1.763-40.784,1.328-59.172,6.87c-7.213,2.175-14.266,5.038-21.045,8.29c-0.985,0.458-2.13,0.962-3.32,1.511
		c30.25-4.901,61.829-11.175,91.804-6.481c3.893,0.595,2.473,6.068-0.87,6.366c-31.281,2.794-62.516,5.542-93.796,8.519
		c3.069,2.565,6.252,4.923,9.961,6.183c0.321,0.115,0.618,0.252,0.893,0.412c0.435-0.16,0.893-0.275,1.397-0.344
		c40.257-4.58,80.995-4.397,121.436-6.939c62.424-3.893,124.802-8.748,187.111-14.335c22.075-1.992,44.196-3.71,66.202-6.435
		c2.427-0.298,4.992-0.916,7.419-1.031C664.649,903.975,665.199,903.884,665.588,903.815z M665.84,903.769
		C666.504,903.586,666.412,903.471,665.84,903.769L665.84,903.769z M652.696,917.486c-3.824,0.435-7.626,0.847-11.45,1.259
		c4.42,17.037,3.16,35.7,3.32,53.127c0.137,17.06,0.618,33.845-1.237,50.722c3.091-0.527,6.206-1.191,9.297-1.946
		c-3.687-15.961-0.916-35.471-0.939-51.547C651.642,952.339,649.535,934.065,652.696,917.486z M642.46,872.672
		c-11.747-10.122-23.495-20.22-35.265-30.342c-31.876,16.465-67.874,23.06-103.506,27.227
		c-77.469,9.091-157.09,7.534-232.017-14.152c-8.954-2.588-17.976-5.542-25.51-10.992c-7.534-5.473-13.442-13.9-13.717-23.22
		c-0.023-0.137-34.097,1.969-36.983,2.794c10.877,14.885,31.349,27.113,46.051,38.448c13.121,10.099,37.028,35.929,54.478,33.96
		c56.859-6.366,113.879-10.992,170.967-14.587c30.204-1.924,60.432-3.572,90.659-5.084c14.633-0.733,29.266-1.443,43.898-2.13
		C608.294,874.275,637.788,868.641,642.46,872.672z M630.46,971.872c0.137-17.175-1.076-35.471,3.069-52.279
		c-5.358,0.573-10.717,1.076-16.075,1.58c3.206,7.854,2.565,16.946,2.817,25.281c0.229,7.854,1.328,16.488-1.466,23.999
		c-1.786,4.855-8.083,4.855-9.893,0c-2.771-7.511-1.672-16.121-1.443-23.999c0.229-8.083-0.321-16.9,2.565-24.594
		c-6.687,0.595-13.35,1.168-20.037,1.717v0.023l-6.481,0.481c-8.015,0.641-16.053,1.237-24.067,1.809
		c2.702,13.854,4.969,31.143,0.458,44.585c-1.214,3.595-6.091,3.572-7.305,0c-4.465-13.282-2.313-30.342,0.366-44.104
		c-21.892,1.557-43.784,3-65.653,4.626c-30.433,2.267-60.867,4.443-91.323,6.343c-7.854,0.481-15.732,0.87-23.632,1.214
		c2.336,17.152,1.58,34.899,1.603,52.142c0.023,15.411,3.183,35.265-1.626,50.333c34.235-2.336,68.538-3.275,102.819-4.626
		c37.784-1.443,75.133-5.244,112.734-8.816c0.962-0.092,1.924-0.183,2.885-0.275c13.969-1.305,27.571-1.603,41.082-3.091
		C629.773,1006.771,630.3,989.482,630.46,971.872z M583.287,838.643c5.267-1.946,22.029-8.152,21.754-15.801
		c-0.321-9.412-27.548-16.877-34.464-19.121c-3.87-1.259-7.786-2.382-11.724-3.389c-6.984-1.809-14.083-3.275-21.205-4.465
		c-49.875-8.358-102.864-7.007-153.197-4.878c-14.564,0.595-29.128,1.511-43.669,2.656c-11.312,0.847-22.625,1.878-33.891,3
		c-22.258,2.244-46.417,5.656-64.691,19.533c-2.817,25.625,34.716,28.968,53.264,32.769c29.792,6.091,60.111,9.938,90.499,11.473
		c53.791,2.725,107.788-1.534,160.502-12.549c1.053-0.229,2.13-0.435,3.206-0.664C560.937,844.895,572.525,842.628,583.287,838.643z
		 M571.769,529.226c0.985-0.206,1.946-0.481,2.862-0.847c-29.151-17.449-29.54-67.347-16.098-97.162
		c-13.35-2.954-19.625,8.29-22.121,21.663c-0.023,0.664-0.137,1.328-0.321,1.946c-1.557,9.824-1.214,20.449-0.229,27.296
		c1.832,12.869,6.045,27.021,14.518,37.234c0.092-0.023,0.183-0.046,0.275-0.046c1.557-1.351,4.007-1.74,5.816-0.16
		c1.511,0.572,2.656,1.672,3.389,3C563.525,525.241,567.578,527.92,571.769,529.226z M524.619,751.282
		c18.686-3.252,32.151-21.892,26.609-40.532c-11.908-40.143-66.454-21.548-62.836,15.617
		C490.155,744.526,507.307,754.304,524.619,751.282z M531.374,522.882c-6.206-11.152-9.297-24.273-10.58-36.662
		c-0.756-7.213-0.573-16.03,0.756-24.892c-3.412,1.145-6.732,2.565-10.007,4.007c-6.893,3.023-13.579,6.481-20.472,9.457
		c-21.411,9.251-43.486,16.717-64.737,26.403c-22.67,10.328-49.142,21.571-67.118,39.204c-9.16,8.977-16.236,20.312-19.579,32.723
		c-2.336,8.702-2.679,17.587-6.572,25.441c9.572,2.862,18.823,3.137,28.212,3.16c-3.252-12.984-1.168-32.746,7.969-42.822
		c12.16-13.442,33.731-11.518,50.127-14.175C456.997,538.591,494.002,530.073,531.374,522.882z M509.276,775.738
		c0.321-3.962,1.053-7.603,2.221-11.289c-15.297-2.13-29.082-11.656-34.051-27.067c-0.893,0.023-1.832-0.069-2.84-0.435
		c-29.609-10.396-61.233,0.801-91.758-2.496c-1.122-0.115-2.267-0.252-3.435-0.389c4.168,15.778-2.244,34.097-14.358,44.86
		c20.014-1.237,40.074-2.038,60.18-2.153c27.227-0.183,55.852-0.641,84.041,1.695C509.208,777.524,509.208,776.608,509.276,775.738z
		 M475.591,720.528c0.481-5.908,2.061-11.702,4.58-17.014c-9.755-5.404-26.678-1.328-36.364,0.298
		c-11.496,1.924-22.808,5.084-34.349,6.595c-24.754,3.229-56.012-4.946-57.065-33.639c-0.801,0.023-1.557,0.069-2.244,0.069
		c-4.992,0.16-9.549-0.435-13.854-1.534c-3.366,11.816-1.626,22.075,2.336,31.762c14.976,11.702,37.99,13.442,55.989,13.556
		C421.892,720.802,448.753,713.795,475.591,720.528z M377.925,655.104c-0.985-7.58-0.206-15.686-0.298-23.128
		c-0.092-6.045-1.237-12.847-0.275-18.984c-11.06,4.007-25.167,3.641-35.906,2.107c-4.442-0.641-24.48-9.183-27.502-6.206
		c-1.008,1.008-2.153,1.603-3.343,1.855c0.321,4.671,0.229,9.435-0.115,14.221c0.343,0.115,0.687,0.275,1.03,0.504
		c16.236,10.58,34.876,2.244,51.776,8.427c4.099,1.511,4.259,7.099,0,8.519c-16.419,5.473-39.044,3.641-54.02-6.045
		c-0.481,3.664-1.008,7.305-1.534,10.854c12.732,6.572,23.884,15.892,38.975,16.121c6.458,0.092,13.121-0.756,19.373-2.382
		C370.803,659.752,374.192,657.417,377.925,655.104z M366.155,757.968c3.298-8.45,2.908-16.19,1.237-24.96
		c-0.069-0.275-0.069-0.527-0.092-0.802c-6.274-1.214-12.572-2.931-18.274-5.496c2.175,3.641,4.397,7.328,6.481,11.083
		c8.519,15.411-5.427,28.922-11.404,42.57c4.557-0.344,9.114-0.664,13.671-0.962c-0.504-0.847-0.733-1.809-0.389-2.771
		C359.697,770.105,363.636,764.403,366.155,757.968z M360.773,990.695c0.527-17.129,0.298-34.807,3.069-51.799
		c-27.411,1.099-54.867,1.946-82.095,5.084c-0.023,0-0.046,0-0.069,0c2.084,7.557,1.214,16.007,1.328,23.793
		c0.16,10.992,0.229,21.983,0.344,32.975c0.16,15.686,0.962,31.258-0.412,46.761c4.969-1.031,10.03-1.786,15.137-2.359
		c-0.641-9.938-0.366-19.9-0.275-29.884c0.137-13.442-0.641-27.25,2.13-40.44c0.641-3.069,5.542-3.069,6.183,0
		c2.794,13.19,2.015,26.998,2.13,40.44c0.092,9.686,0.343,19.35-0.229,29.014c3.069-0.229,6.114-0.389,9.183-0.527
		c0.847-30.273,0.092-61.187,3.687-91.208c0.504-4.397,6.32-4.397,6.847,0c3.549,29.838,2.84,60.592,3.664,90.705
		c9.297-0.252,18.526-0.504,27.479-1.214c0.756-0.069,1.534-0.115,2.29-0.183C356.4,1026.51,360.27,1006.427,360.773,990.695z
		 M344.973,754.831c2.771-10.213-5.725-16.946-10.602-25.121c-10.74-18.022-16.946-38.425-10.58-59.035
		c0-0.023,0.023-0.023,0.023-0.023c-3.504-1.695-6.916-3.572-10.373-5.542c0.71,9.16,0.298,18.549,0.733,27.548
		c0.573,12.389,1.695,24.686,3.046,36.983c1.282,11.839,2.679,23.655,3.778,35.494c0.458,4.855,1.809,11.885,0.618,17.083
		c4.58-0.389,9.183-0.779,13.785-1.168c-0.046-0.321-0.069-0.664-0.023-1.053C336.454,770.632,342.568,763.739,344.973,754.831z
		 M271.076,965.872c0.137-8.45-0.87-17.656,2.542-25.487c-6.687-3.137-11.633-8.519-17.93-12.503
		c-0.092-0.023-0.16-0.069-0.252-0.092c-1.374,0.023-2.267-0.595-2.748-1.511c-0.023-0.023-0.046-0.023-0.069-0.046
		c0.664,7.099-0.183,14.633-0.206,21.548c-0.069,10.58-0.115,21.159-0.183,31.762c-0.046,11.335,0,22.693-0.183,34.029
		c-0.046,4.397,0.183,8.404-0.618,12.137c6.229,5.633-3.366,15.32-9.755,9.412c-7.511-6.916-14.976-13.9-22.739-20.541
		c-6.801-5.816-14.908-10.534-20.335-17.747c-1.374-1.809,0.481-4.671,2.611-4.534c0.527,0.023,1.053,0.069,1.58,0.16
		c8.885,1.122,16.488,7.328,23.472,12.618c4.855,3.641,9.549,7.488,14.198,11.358c0.023-1.672,0.069-3.389,0.046-5.129
		c-0.092-10.58-0.092-21.182-0.16-31.762c-0.069-11.358-0.115-22.693-0.183-34.052c-0.046-9.366-1.603-19.556,1.74-28.418
		c0.115-0.252,0.252-0.458,0.366-0.664c-0.55-0.641-1.122-1.282-1.695-1.901c-5.336-5.885-11.61-10.648-17.953-15.411
		c-2.862-2.175-5.771-4.305-8.656-6.435c2.404,11.541-0.504,25.602-1.076,36.25c-1.03,19.739-1.374,39.57-4.763,59.126
		c-0.412,2.404-2.977,3.504-5.221,3.206c-1.74-0.252-3.298-1.305-3.549-3.206c-2.588-18.32-0.16-37.509,0.206-55.966
		c0.16-8.038,0.916-16.075,1.03-24.113c0.092-7.648-1.351-15.182-1.145-22.785c0.023-0.985,0.252-1.809,0.618-2.519
		c-3.229-2.267-6.503-4.534-9.778-6.847l-6.183-0.023c0-1.214,0.023-2.404,0.023-3.618c0-0.229,0.023-0.458,0.069-0.664
		c-4.145-3-8.244-6.114-12.16-9.366c1.649,7.465,1.076,15.526,1.191,23.083c0.137,9.847,0.206,19.671,0.229,29.495
		c0,19.854,0.572,39.112-0.756,58.943c-0.069,1.351-0.183,2.748-0.847,3.916c-1.695,2.977-5.565,2.885-9.183,3.229
		c-0.939,0.092-1.855,0.229-2.725,0.435c-11.885,2.977-4.053,18.114-11.06,25.189c-4.053,4.053-9.755,4.465-15.137,4.465
		c-2.061,0-4.099-0.229-6.091-0.275c5.565,8.931,15.732,15.549,23.197,22.533c9.641,9,19.716,17.495,29.678,26.128
		c20.518,17.747,41.15,35.38,61.806,52.966c5.702-2.427,9.366-8.313,10.717-14.358c1.374-6.068,0.801-12.366,0.229-18.549
		c-0.252-2.702-0.527-5.519-1.855-7.9c-0.893-1.626-2.221-2.977-3.572-4.282c-26.609-25.876-59.859-44.425-85.186-71.584
		c-3.023-3.252-5.565-9.206-1.672-11.312c0.618-0.321,1.237-0.458,1.901-0.458c1.992,0,4.076,1.305,5.771,2.588
		c31.693,24.022,61.416,50.608,88.85,79.37c3.16-2.015,6.32-4.03,9.48-6.046c6.526-18.297,3.504-39.776,3.71-58.966
		C270.824,989.115,270.893,977.482,271.076,965.872z M258.207,914.326c4.74-3.939,10.809-7.007,16.877-9.572
		c-19.716-11.129-34.693-28.349-51.936-42.73c-13.03-10.854-32.815-21.319-39.731-37.899c-4.855,0.55-9.641,1.282-14.381,2.427
		c-8.542,2.015-10.305,2.794-4.969,9.526c4.397,5.519,9.893,10.373,15.182,14.999c11.427,9.961,23.632,18.892,35.998,27.663
		c7.076,5.015,14.106,10.122,20.976,15.434C243.734,899.991,250.1,909.196,258.207,914.326z M233.521,1122.528
		c0.092-0.092,0.206-0.183,0.298-0.275c-22.098-19.579-44.15-39.204-66.088-58.943c-10.534-9.48-20.724-19.213-31.006-28.945
		c-6.893-6.526-14.129-12.503-17.61-21.342c-3.504,2.725-5.29,7.213-6.801,11.267c12.961,12.045,24.342,26.357,36.57,38.952
		c10.328,10.648,21.182,20.701,31.51,31.326c8.381,8.656,16.877,17.266,26.014,25.144c5.038,4.328,13.74,12.824,21.617,14.175
		C228.323,1129.672,230.521,1125.482,233.521,1122.528z"/>
	<path fill="#BF8800" d="M1083.961,525.058c1.557,11.06-5.816,21.113-11.656,30.617c-8.473,13.74-14.312,29.014-17.404,44.814
		c-3.481,17.862-3.458,36.387,0.366,54.157c-27.937-1.603-52.05,17.747-74.469,34.487c-3.595,2.679-7.603,5.45-12.091,5.198
		c-5.542-0.321-9.664-5.084-13.076-9.457c-15.137-19.373-30.937-39.524-53.081-50.15c-17.839-8.564-39.089-10.557-54.34-23.174
		c-16.762-13.854-22.006-36.799-28.418-57.546c-10.076-32.586-25.35-63.546-45.066-91.346
		c-13.098-18.48-28.762-37.166-30.136-59.768c-0.756-12.618,3.137-25.029,4.672-37.578c4.626-37.944-12.32-74.858-28.991-109.253
		c-2.725-5.61-5.496-11.404-5.771-17.633c-0.664-16.511,14.633-31.807,19.19-47.15c30.754,30.113,35.242,92.72,26.838,132.221
		c-1.099,5.129-2.427,10.373-1.557,15.549c0.939,5.473,4.259,10.213,7.351,14.839c26.495,39.845,41.127,87.476,41.563,135.336
		c0.046,6.71-0.092,13.694,2.794,19.739c3.87,8.061,12.228,12.755,19.671,17.678c26.472,17.518,46.623,44.379,56.035,74.698
		c1.763,5.702,7.648,12.961,11.862,8.748c1.122-1.145,1.511-2.771,1.786-4.351c2.038-11.999-0.412-24.731-6.801-35.105
		c40.601,9.228,76.736,36.479,96.796,72.958c-6.664,2.633-13.556,5.427-18.342,10.74c-4.786,5.313-6.732,13.923-2.427,19.625
		c8.038-16.602,28.166-23.128,46.44-25.533c2.931-0.389,6.16-0.87,8.015-3.137c1.557-1.901,1.717-4.534,1.878-6.961
		c2.29-37.097,16.327-73.37,39.616-102.338c1.328-1.649,2.748-3.458,2.794-5.565c0.046-2.061-1.214-3.893-2.382-5.587
		c-18.869-27.021-30.846-58.852-34.441-91.621c-3.893-3.847-8.679,3.939-8.427,9.412c1.374,31.075,13.19,61.622,33.067,85.552
		c-5.015,6.732-10.053,13.465-15.068,20.197c-15.114-24.273-44.837-34.738-72.82-40.555c-36.433-7.557-73.874-10.099-110.971-7.557
		c-4.923,0.344-11.61,4.488-8.473,8.267c1.053,1.237,2.794,1.58,4.397,1.809c42.707,6.343,87.018,3.275,128.26,16.075
		c16.396,5.084,32.563,13.03,43.394,26.38c2.313,2.885,4.42,6.091,5.061,9.732c0.664,3.641-0.206,7.374-1.076,10.969
		c-4.946,20.678-9.893,41.356-14.839,62.035c-4.511,1.282-9.022,2.565-13.534,3.847c-15.022-41.494-54.272-73.187-98.01-79.095
		c-4.946-0.687-10.076-1.076-14.587-3.252c-5.267-2.565-9.114-7.305-13.007-11.702c-15.068-17.037-33.41-31.212-53.699-41.494
		c5.496-61.05-14.679-123.978-54.638-170.464c6.091-15.022,9.412-31.143,9.801-47.356l6.732,0.229c0,2.977,2.908,5.908,6.068,6.366
		c3.87,0.55,7.603-1.351,10.992-3.275c45.959-25.968,83.949-65.79,107.742-112.894c16.533,4.809,33.616,10.534,45.639,22.831
		c14.152,14.45,18.892,35.38,23.06,55.165c0.687,3.298,1.374,6.755,0.412,9.984c-0.962,3.16-3.389,5.656-5.771,7.946
		c-43.349,42.066-100.941,69.156-160.983,75.729c-2.153,5.725,6.732,8.771,12.824,8.221c61.371-5.587,120.405-33.983,163.09-78.431
		c13.717,17.793,28.006,36.96,29.792,59.355c1.763,22.258-9.183,45.226-2.244,66.431c-58.76-1.488-116.054,16.579-172.044,34.441
		c-1.649,0.527-3.366,1.099-4.488,2.404c-2.542,2.977-0.16,7.992,3.504,9.435c3.641,1.443,7.74,0.435,11.518-0.595
		c58.691-16.213,117.726-41.265,178.112-33.41c3.046,0.389,6.229,0.939,8.725,2.725c4.282,3.069,5.404,8.816,6.412,13.992
		c5.152,26.518,15.503,52.028,30.296,74.652C1079.015,512.852,1083.022,518.509,1083.961,525.058z M931.794,544.362
		c4.053-0.962,4.443-7.946,0-8.587c-15.617-2.29-31.555-2.382-47.219-4.901c-5.771-0.939-8.335,7.259-2.473,8.931
		C897.399,544.11,916.016,548.072,931.794,544.362z M894.812,486.335c3.229-1.122,2.817-6.091-0.824-6.114
		c-10.534-0.115-21.8,0.504-31.899,3.618c-5.358,1.672-3.091,10.053,2.313,8.427C874.362,489.289,885.056,489.747,894.812,486.335z
		 M889.064,464.603c4.259-2.862,1.443-8.587-3.32-7.9c-12.915,1.878-26.54,5.45-39.25,8.587c-6.503,1.626-3.755,11.656,2.771,10.076
		C861.974,472.275,877.98,472.046,889.064,464.603z M885.469,417.041c3.389-0.664,3.389-6.229,0-6.87
		c-17.793-3.435-37.28-1.374-55.325-1.259c-6,0.046-6.023,9.32,0,9.366C848.211,418.392,867.676,420.453,885.469,417.041z
		 M882.148,389.63c5.679-0.664,5.679-8.129,0-8.816c-21.319-2.565-43.578-0.572-64.989,0.046c-5.61,0.16-5.633,8.564,0,8.748
		C838.57,390.226,860.829,392.218,882.148,389.63z M867.584,323.107c2.908-1.076,2.794-6.183-0.801-5.862
		c-20.335,1.878-39.662,9.274-60.271,9.251c-5.61,0-5.61,8.61,0,8.725C827.464,335.656,848.028,330.252,867.584,323.107z
		 M867.424,290.247c3.366-2.404,1.328-7.305-2.771-6.595c-24.892,4.328-44.86,22.281-71.149,22.396
		c-6.091,0.023-6.023,9.137,0,9.457C818.442,316.787,847.387,304.605,867.424,290.247z"/>
	<path fill="#BF8800" d="M1047.459,335.633c2.038,8.061-1.58,15.892-3.618,23.586c-4.168,15.595-4.946,31.555-3.504,47.402
		c-5.427-2.015-11.45-2.702-17.495-2.794c-0.137-5.29-1.488-10.419-1.328-15.824c0.183-7.19,1.488-14.266,2.817-21.319
		c2.061-10.786,4.923-21.983,4.236-33.044c-1.42-22.602-17.312-46.555-30.685-64.096c-0.435-0.573-0.916-1.053-1.42-1.466
		c2.908-2.885,5.587-6,7.076-9.618c0.687,1.511,1.328,3.023,2.038,4.534c7.854,17.06,17.083,32.471,27.662,47.951
		C1038.254,318.253,1045.238,326.886,1047.459,335.633z"/>
	<path fill="#BF8800" d="M999.119,248.501c-0.458,0.023-0.916,0.092-1.42,0.252c-4.282,1.374-7.351,4.099-10.236,7.19
		c-3.252-21.915-7.58-45.57-21.159-63.225c-12.801-16.648-34.097-22.029-52.623-29.746c-0.206-0.069-0.389-0.092-0.572-0.16
		c1.443-3.549,2.817-7.099,4.007-10.694c0.801-2.382,1.717-5.427,2.359-8.106c14.747,8.038,30.846,12.618,47.814,16.144
		C976.379,190.153,986.707,219.739,999.119,248.501z"/>
	<path d="M931.794,535.775c4.443,0.641,4.053,7.625,0,8.587c-15.778,3.71-34.395-0.252-49.692-4.557
		c-5.862-1.672-3.297-9.87,2.473-8.931C900.239,533.393,916.177,533.485,931.794,535.775z"/>
	<path fill="#BF8800" d="M906.994,136.66c-2.015,5.633-4.007,11.267-6.023,16.877c-11.221-22.006-41.242-32.036-63.454-21.159
		c-0.023,0.229-0.046,0.458-0.046,0.687l-5.267,0.229c-0.824-17.633-5.427-35.013-14.152-50.493
		c8.885-5.587,17.77-11.175,26.632-16.785C862.981,91.617,883.889,115.318,906.994,136.66z"/>
	<path d="M893.987,480.221c3.641,0.023,4.053,4.992,0.824,6.114c-9.755,3.412-20.449,2.954-30.41,5.931
		c-5.404,1.626-7.671-6.755-2.313-8.427C872.187,480.724,883.453,480.106,893.987,480.221z"/>
	<path fill="#BF8800" d="M894.995,165.674c0.389,3.527-1.259,6.916-2.931,10.03c-23.495,44.173-60.317,81.156-104.399,104.857
		c-1.74,0.939-3.595,1.969-4.465,3.733c-0.321,0.641-0.458,1.282-0.458,1.946l-6.732-0.229c0.206-8.267-0.344-16.556-1.672-24.708
		c-0.664-4.168-1.534-8.519-0.229-12.526c1.717-5.29,6.732-8.679,11.221-11.999c31.784-23.564,48.707-64.164,46.875-103.483
		l5.267-0.229c0,4.946,7.603,6.183,12.938,6.091c15.32-0.229,30.594,6.732,40.463,18.48
		C892.842,159.972,894.651,162.628,894.995,165.674z M821.762,225.304c2.015-4.122-2.748-7.694-6.229-4.786
		c-10.831,9.045-18.365,23.747-26.495,35.128c-2.519,3.527,3.183,7.946,6,4.649c4.626-5.427,9.183-10.9,13.511-16.556
		C813.06,237.876,818.488,231.968,821.762,225.304z"/>
	<path d="M885.743,456.703c4.763-0.687,7.58,5.038,3.32,7.9c-11.083,7.442-27.09,7.671-39.799,10.763
		c-6.526,1.58-9.274-8.45-2.771-10.076C859.203,462.153,872.828,458.581,885.743,456.703z"/>
	<path d="M885.469,410.171c3.389,0.641,3.389,6.206,0,6.87c-17.793,3.412-37.257,1.351-55.325,1.237c-6.023-0.046-6-9.32,0-9.366
		C848.188,408.797,867.676,406.736,885.469,410.171z"/>
	<path fill="#6A2A0E" d="M884.85,959.483c0.16,1.626,0.298,3.275,0.435,4.901c-18.571,2.313-37.12,4.763-55.691,7.167
		c-2.175-5.427-6.045-10.053-10.831-12.984c13.419-0.389,28.052-4.259,39.731-7.397l4.717,3.275
		c-1.191,1.878-0.435,4.763,2.404,4.717c3.756-0.069,7.419-0.275,11.175-0.092C879.423,959.209,882.171,959.483,884.85,959.483z"/>
	<path fill="#6A2A0E" d="M883.911,950.209c-6.366-0.183-13.602,0.756-19.121,2.931c-0.687,0.275-1.237,0.756-1.58,1.305
		l-4.717-3.275c0.779-0.206,1.534-0.412,2.29-0.618c4.557-1.237,3.366-7.694-1.076-7.969c-10.099-0.641-20.335,0.87-30.342,2.153
		c-7.671,0.985-15.709,1.168-23.357,2.748c0.115-3.87,0.252-7.786,1.58-10.442c2.588-5.244,13.808-3.687,19.396-3.893
		c17.816-0.618,36.067-0.275,53.768-2.931C882.217,936.767,883.179,943.477,883.911,950.209z"/>
	<path d="M882.148,380.814c5.679,0.687,5.679,8.152,0,8.816c-21.319,2.588-43.578,0.595-64.989-0.023
		c-5.633-0.183-5.61-8.587,0-8.748C838.57,380.242,860.829,378.249,882.148,380.814z"/>
	<path d="M866.783,317.245c3.595-0.321,3.71,4.786,0.801,5.862c-19.556,7.145-40.12,12.549-61.073,12.114
		c-5.61-0.114-5.61-8.725,0-8.725C827.121,326.52,846.448,319.123,866.783,317.245z"/>
	<path d="M864.653,283.652c4.099-0.71,6.137,4.191,2.771,6.595c-20.037,14.358-48.982,26.54-73.919,25.258
		c-6.023-0.321-6.091-9.435,0-9.457C819.793,305.933,839.761,287.98,864.653,283.652z"/>
	<path d="M815.534,220.518c3.481-2.908,8.244,0.664,6.229,4.786c-3.275,6.664-8.702,12.572-13.213,18.434
		c-4.328,5.656-8.885,11.129-13.511,16.556c-2.817,3.298-8.519-1.122-6-4.649C797.168,244.265,804.702,229.563,815.534,220.518z"/>
	<path fill="#BF8800" d="M819.175,130.912c1.168,16.03-1.031,31.876-6.435,47.013c-5.404,15.137-13.671,29.403-24.892,40.967
		c-5.61,5.794-11.633,11.038-17.152,16.762c-1.901-7.763-4.42-15.388-7.534-22.762c-5.587-13.19-13.167-30.868-24.571-39.845
		c-0.802-0.618-1.695-1.03-2.611-1.237c2.427-21.159,2.038-42.662,6.526-63.546c0.824-3.778,1.443-8.152,3.458-11.496
		c3.366-5.633,8.908-5.61,14.885-5.839c11.106-0.389,21.182-0.527,32.197-2.427c5.221-0.893,10.602-1.763,15.824-3.069
		C812.351,100.8,817.984,114.791,819.175,130.912z"/>
	<path fill="#E8B45D" d="M791.123,948.652c3.618,4.9,5.748,13.442,2.885,19.144c-4.465,8.862-14.472,2.725-16.854-4.397
		C774.681,956.026,783.864,938.805,791.123,948.652z"/>
	<path fill="#E8B45D" d="M773.513,490.045c3.504,6.549,6.87,13.03,10.099,19.533c-10.167-3.71-21.045-5.038-32.311-6.114
		c-19.304-1.832-38.837-1.901-58.188-0.641c-5.656,0.366-11.312,0.801-16.969,1.305l-0.458-5.061
		c9.458-0.893,18.869-2.29,27.96-4.488c4.855-1.168,3.618-8.29-1.145-8.473c-21.686-0.824-43.83,1.786-65.515,3.046
		c-21.892,1.282-43.784,2.084-65.676,3.527c-2.931,0.206-4.03,2.885-3.297,4.946l-3.985,1.488c-1.191-2.977-2.153-6.114-2.885-9.366
		c26.54-4.145,52.692-10.122,78.476-17.701c26.197-7.74,53.264-15.732,77.56-28.418c3.343-1.763,1.008-6.984-2.542-6.023
		c-26.907,7.213-52.944,17.633-79.713,25.35c-24.846,7.168-49.898,13.511-75.179,18.915c-0.412-3.275-0.595-6.618-0.618-9.915
		c0.824,1.328,2.542,2.153,4.397,1.214c23.151-11.77,48.982-17.014,73.21-26.014c25.075-9.297,51.867-18.709,74.813-32.586
		c3.733-2.244,1.328-8.244-2.977-7.076c-27.708,7.603-53.928,21.503-80.721,31.784c-22.854,8.748-46.6,15.434-67.645,28.212
		c-0.435,0.252-0.756,0.572-1.008,0.893c0.481-11.885,3.504-23.289,8.977-31.487c14.633-2.794,27.914-11.564,40.12-19.716
		c16.762-11.221,33.639-22.648,49.875-34.624c16.671-12.297,32.586-25.831,46.578-41.173c6.389-7.03,12.434-14.266,17.655-22.235
		c2.404-3.641,5.267-7.305,7.9-11.083c6.252,21.754,8.839,44.036,3.984,65.149c-4.763,20.678-6.824,39.135,3.343,58.554
		c4.534,8.656,10.602,16.396,16.121,24.434C761.125,466.962,767.353,478.549,773.513,490.045z M670.809,398.241
		c2.336-1.649,0.962-6.32-2.13-5.038c-23.289,9.686-45.341,24.319-66.088,38.563c-3.801,2.611-0.206,8.839,3.641,6.229
		C627.117,423.751,650.2,412.782,670.809,398.241z"/>
	<path fill="#E8B45D" d="M764.995,966.17c-0.069,0.069-0.16,0.092-0.229,0.16c-7.763,6.297-29.54,3.595-36.456-3.389
		c-6.458-6.503-4.923-22.281-5.061-30.8c-0.183-13.373-0.092-26.701-1.58-40.028c-1.58-13.946-2.427-40.349-17.747-47.287
		c-7.099-3.229-15.64-1.74-23.06-0.893c-14.06,1.603-28.121,3.137-42.181,4.763c-1.58,0.183-2.588,1.099-3,2.198
		c-0.756-0.618-1.466-1.237-2.175-1.809c-2.817-2.313-5.931-5.427-9.274-8.358c25.945,1.809,52.188-7.374,78.27-6.252
		c27.159,1.168,32.357,23.243,31.784,46.257c-0.458,18.526-3.252,36.96-0.71,55.462c1.053,7.809,3.046,16.259,10.602,20.243
		c6.366,3.343,13.19,2.359,19.831,0.435C763.85,960.01,764.216,963.193,764.995,966.17z"/>
	<path fill="#6A2A0E" d="M727.417,1092.071c3.389,2.84,5.542,6.916,6.71,11.152c-17.93,4.03-38.013,1.237-56.104,1.992
		c-20.632,0.847-41.219,2.473-61.76,4.534c-41.883,4.191-83.56,10.053-125.397,14.404c-42.249,4.42-84.636,7.717-127,10.396
		c-20.884,1.351-41.746,2.473-62.653,3.435c-18.823,0.847-38.815,0.275-57.638,2.931c0.389-1.053,0.458-2.29,0.023-3.641
		c-0.069-1.053-0.321-2.061-0.87-3.023c-0.16-0.252-0.275-0.435-0.366-0.595c0.023-0.115,0.046-0.229,0.092-0.344
		c0.046-0.137,0.137-0.298,0.183-0.412c0.275-0.573,0.572-1.122,0.939-1.649c1.603-2.45,3.893-3.595,6.503-4.763
		c39.685,3.504,81.362-0.847,120.955-3.504c39.776-2.679,79.484-4.053,119.031-9.343c40.12-5.381,80.102-12.778,120.611-14.564
		c20.151-0.893,39.914-2.336,59.997-4.122c16.052-1.42,33.662,2.175,49.119-3.068c1.466-0.481,2.542-1.305,3.343-2.267
		C724.623,1090.171,726.043,1090.926,727.417,1092.071z"/>
	<path d="M708.57,407.492c4.305-1.168,6.71,4.832,2.977,7.076c-22.945,13.877-49.738,23.289-74.813,32.586
		c-24.228,9-50.058,14.243-73.21,26.014c-1.855,0.939-3.572,0.115-4.397-1.214l0.069-3.572c0.252-0.321,0.573-0.641,1.008-0.893
		c21.045-12.778,44.791-19.465,67.645-28.212C654.642,428.995,680.862,415.095,708.57,407.492z"/>
	<path fill="#6A2A0E" d="M706.395,1078.24c-0.137,0.618-0.252,1.237-0.344,1.855c-14.335,2.084-29.563,0.618-43.852,2.29
		c-18.686,2.152-37.143,2.656-55.875,3.755c-39.181,2.336-77.858,9.114-116.696,14.541c-40.097,5.633-80.446,7.167-120.795,10.099
		c-19.808,1.42-39.57,3.412-59.401,4.786c-17.22,1.214-34.578,1.489-51.821,2.771c6.068-4.626,9.503-10.305,8.977-19.144
		c-0.206-3.595-1.008-7.855-1.374-12.022c20.793,0.321,41.631-3.023,62.401-3.778c20.839-0.733,42.616-1.672,62.401-8.862
		c3.343-1.214,1.992-5.725-1.42-5.221c-38.608,5.679-82.553,9.709-122.214,8.313c0.092-4.397,2.817-6.778,7.145-8.335
		c1.672-0.595,2.817-2.244,3.229-3.984c14.587-5.198,30.754-5.061,46.074-5.771c16.51-0.756,32.884-2.611,49.348-3.824
		c39.479-2.908,79.095-3.343,118.619-5.084c20.06-0.893,40.143-2.084,60.088-4.443c16.213-1.924,32.426-4.901,48.707-6.137
		c14.198-1.076,40.097,0.641,55.05-8.061c0.344,1.534,1.924,2.977,3.756,2.633c5.954-1.145,17.472,0.687,22.579,4.214
		c1.328,0.939,2.29,1.969,3.046,3.046c-15.823,4.923-33.845,5.427-50.173,6.778c-17.152,1.397-34.349,2.382-51.501,4.007
		c-35.632,3.389-70.965,8.542-106.757,9.87c-4.465,0.183-4.488,6.847,0,6.939c36.479,0.939,72.683-4.007,108.979-6.87
		c17.129-1.328,34.281-2.038,51.409-3.32c16.694-1.237,33.433-4.694,50.104-5.771c-0.115,3.183-0.252,6.435,0.618,9.503
		C689.174,1071.76,697.67,1076.66,706.395,1078.24z"/>
	<path d="M702.502,486.106c4.763,0.183,6,7.305,1.145,8.473c-9.091,2.198-18.503,3.595-27.96,4.488
		c-12.182,1.122-24.502,1.488-36.502,1.832c-22.625,0.641-45.272,0.527-67.874-0.916c-1.74-0.092-2.862-1.122-3.297-2.359
		c-0.733-2.061,0.366-4.74,3.297-4.946c21.892-1.443,43.784-2.244,65.676-3.527C658.672,487.892,680.816,485.281,702.502,486.106z"
		/>
	<path fill="#E8B45D" d="M675.687,499.067l0.458,5.061c-12.801,1.145-25.579,2.725-38.196,4.969
		c-18.159,3.275-36.937,5.725-54.844,9.984c-0.87,0.206-1.557,0.641-2.084,1.191c-7.74-4.328-13.396-11.976-16.991-21.159
		l3.985-1.488c0.435,1.237,1.557,2.267,3.297,2.359c22.602,1.443,45.249,1.557,67.874,0.916
		C651.184,500.555,663.504,500.189,675.687,499.067z"/>
	<path d="M668.679,393.203c3.091-1.282,4.465,3.389,2.13,5.038c-20.609,14.541-43.692,25.51-64.576,39.753
		c-3.847,2.611-7.442-3.618-3.641-6.229C623.339,417.522,645.391,402.889,668.679,393.203z"/>
	<path fill="#6A2A0E" d="M682.854,889.503c-5.679,4.878-11.358,9.801-17.266,14.312c-0.389,0.069-0.939,0.16-1.672,0.183
		c-2.427,0.115-4.992,0.733-7.419,1.031c-22.006,2.725-44.127,4.443-66.202,6.435c-62.309,5.587-124.688,10.442-187.111,14.335
		c-40.44,2.542-81.179,2.359-121.436,6.939c-0.504,0.069-0.962,0.183-1.397,0.344c-0.275-0.16-0.573-0.298-0.893-0.412
		c-3.71-1.26-6.893-3.618-9.961-6.183c31.281-2.977,62.516-5.725,93.796-8.519c3.343-0.298,4.763-5.771,0.87-6.366
		c-29.975-4.694-61.554,1.58-91.804,6.481c1.191-0.55,2.336-1.053,3.32-1.511c6.778-3.252,13.831-6.114,21.045-8.29
		c18.388-5.542,40.097-5.107,59.172-6.87c33.548-3.091,67.141-4.282,100.758-6.137c57.272-3.183,114.451-7.511,171.746-10.19
		C646.467,884.236,666.321,881.328,682.854,889.503z"/>
	<path fill="#6A2A0E" d="M641.246,918.745c3.824-0.412,7.626-0.824,11.45-1.259c-3.16,16.579-1.053,34.853-1.008,51.615
		c0.023,16.075-2.748,35.586,0.939,51.547c-3.091,0.756-6.206,1.42-9.297,1.946c1.855-16.877,1.374-33.662,1.237-50.722
		C644.406,954.446,645.665,935.783,641.246,918.745z"/>
	<path fill="#E8B45D" d="M607.194,842.33c11.77,10.122,23.518,20.22,35.265,30.342c-4.672-4.03-34.166,1.603-40.944,1.924
		c-14.633,0.687-29.266,1.397-43.898,2.13c-30.227,1.511-60.455,3.16-90.659,5.084c-57.088,3.595-114.108,8.221-170.967,14.587
		c-17.449,1.969-41.356-23.861-54.478-33.96c-14.701-11.335-35.174-23.564-46.051-38.448c2.885-0.824,36.96-2.931,36.983-2.794
		c0.275,9.32,6.183,17.747,13.717,23.22c7.534,5.45,16.556,8.404,25.51,10.992c74.927,21.686,154.548,23.243,232.017,14.152
		C539.32,865.39,575.318,858.795,607.194,842.33z"/>
	<path fill="#E8B45D" d="M633.529,919.593c-4.145,16.808-2.931,35.105-3.069,52.279c-0.16,17.61-0.687,34.899,1.397,52.348
		c-13.511,1.489-27.113,1.786-41.082,3.091c-0.962,0.092-1.924,0.183-2.885,0.275l-0.206-2.13c1.992-0.275,3.824-1.534,4.397-3.801
		c3.939-15.961,2.359-33.021,1.924-49.303c-0.435-15.984,0.664-33.319-4.007-48.753v-0.023c6.687-0.55,13.35-1.122,20.037-1.717
		c-2.885,7.694-2.336,16.511-2.565,24.594c-0.229,7.877-1.328,16.488,1.443,23.999c1.809,4.855,8.106,4.855,9.893,0
		c2.794-7.511,1.695-16.144,1.466-23.999c-0.252-8.335,0.389-17.427-2.817-25.281C622.812,920.669,628.17,920.165,633.529,919.593z"
		/>
	<path fill="#6A2A0E" d="M605.042,822.842c0.275,7.648-16.488,13.854-21.754,15.801c-10.763,3.984-22.35,6.252-33.616,8.564
		l-0.687-3.297c8.793-1.992,17.358-5.542,23.38-10.236c5.244-4.076,8.473-10.351,5.977-16.991
		c-3.023-8.061-12.389-11.289-19.419-14.793c-0.137-0.069-0.275-0.137-0.435-0.183l0.366-1.374c3.939,1.008,7.854,2.13,11.724,3.389
		C577.494,805.965,604.721,813.431,605.042,822.842z"/>
	<path d="M594.004,972.353c0.435,16.281,2.015,33.342-1.924,49.303c-0.573,2.267-2.404,3.526-4.397,3.801
		c-2.542,0.389-5.381-0.893-6.091-3.801c-3.962-15.984-2.359-32.998-1.924-49.303c0.412-15.801-0.641-32.975,3.847-48.272
		l6.481-0.481C594.668,939.034,593.569,956.369,594.004,972.353z"/>
	<path fill="#E8B45D" d="M587.684,1025.457l0.206,2.13c-37.601,3.572-74.95,7.374-112.734,8.816
		c-34.28,1.351-68.584,2.29-102.819,4.626c4.809-15.068,1.649-34.922,1.626-50.333c-0.023-17.243,0.733-34.99-1.603-52.142
		c7.9-0.344,15.778-0.733,23.632-1.214c30.456-1.901,60.89-4.076,91.323-6.343c21.869-1.626,43.761-3.069,65.653-4.626
		c-2.679,13.763-4.832,30.823-0.366,44.104c1.214,3.572,6.091,3.595,7.305,0c4.511-13.442,2.244-30.731-0.458-44.585
		c8.015-0.573,16.053-1.168,24.067-1.809c-4.488,15.297-3.435,32.471-3.847,48.272c-0.435,16.304-2.038,33.319,1.924,49.303
		C582.303,1024.564,585.142,1025.846,587.684,1025.457z"/>
	<path d="M578.341,816.682c2.496,6.641-0.733,12.915-5.977,16.991c-6.023,4.694-14.587,8.244-23.38,10.236
		c-7.397,1.695-14.953,2.267-21.319,1.534c-4.214-0.481-5.748-6.664-1.076-7.854c0.481-0.115,0.939-0.229,1.42-0.344
		c9.412-2.267,18.961-3.641,28.212-6.755c4.191-1.397,12.045-3.824,13.167-8.862c1.443-6.481-9.32-10.969-13.877-13.9
		c-3.572-2.267-0.71-7.397,2.977-6.023c0.16,0.046,0.298,0.115,0.435,0.183C565.952,805.393,575.318,808.622,578.341,816.682z"/>
	<path fill="#BF8800" d="M574.631,528.378c-0.916,0.366-1.878,0.641-2.862,0.847c-4.191-1.305-8.244-3.984-11.908-7.076
		c-0.733-1.328-1.878-2.427-3.389-3c-1.809-1.58-4.259-1.191-5.816,0.16c-0.092,0-0.183,0.023-0.275,0.046
		c-8.473-10.213-12.686-24.365-14.518-37.234c-0.985-6.847-1.328-17.472,0.229-27.296c0.183-0.618,0.298-1.282,0.321-1.946
		c2.496-13.373,8.77-24.617,22.121-21.663C545.091,461.031,545.48,510.929,574.631,528.378z"/>
	<path fill="#6A2A0E" d="M555.51,807.729c4.557,2.931,15.32,7.419,13.877,13.9c-1.122,5.038-8.977,7.465-13.167,8.862
		c-9.251,3.114-18.8,4.488-28.212,6.755l-0.847-3.595c4.9-1.42,9.48-3.366,13.396-6.137c8.313-5.862,6.183-14.06-2.244-18.388
		c-15.572-7.969-35.723-9.595-52.898-11.015c-21.113-1.74-42.41-1.786-63.569-1.717c-23.22,0.069-46.371,1.099-69.546,2.45
		c-3.687,0.206-7.374,0.435-11.06,0.733l-0.458-5.931c14.541-1.145,29.105-2.061,43.669-2.656
		c50.333-2.13,103.322-3.481,153.197,4.878c7.122,1.191,14.221,2.656,21.205,4.465l-0.366,1.374
		C554.8,800.332,551.938,805.462,555.51,807.729z"/>
	<path fill="#E8B45D" d="M551.228,710.75c5.542,18.64-7.923,37.28-26.609,40.532c-17.312,3.023-34.464-6.755-36.227-24.915
		C484.774,689.201,539.32,670.607,551.228,710.75z M532.199,735.275c6.526-5.633,8.129-15.48,5.473-23.426
		c-2.84-8.427-11.289-14.472-19.648-12.32c-6.458-1.626-12.549,4.03-15.503,9.709c-3.962,7.648-4.534,17.93,1.855,24.48
		C511.314,740.839,524.596,741.847,532.199,735.275z"/>
	<path fill="#6A2A0E" d="M548.984,843.91l0.687,3.297c-1.076,0.229-2.153,0.435-3.206,0.664
		c-52.715,11.015-106.711,15.274-160.502,12.549c-30.388-1.534-60.706-5.381-90.499-11.473
		c-18.549-3.801-56.081-7.145-53.264-32.769c18.274-13.877,42.433-17.289,64.691-19.533c11.267-1.122,22.579-2.153,33.891-3
		l0.458,5.931c-15.938,1.237-31.67,3.572-46.44,10.282c-4.236,1.924-2.977,7.145,0.206,9.114c0.71,6.664,6.961,10.465,14.083,12.778
		c17.701,5.748,37.555,7.832,56.012,9.641c42.845,4.168,86.331,3.046,128.993-2.611c10.007-1.328,22.304-1.992,33.067-5.129
		l0.847,3.595c-0.481,0.115-0.939,0.229-1.42,0.344c-4.671,1.191-3.137,7.374,1.076,7.854
		C534.031,846.177,541.587,845.604,548.984,843.91z M285.297,834.43c3.252-0.092,4.603-3.847,2.565-6.183
		c-4.923-5.61-15.045-8.198-13.534-17.495c0.916-5.656-7.282-8.221-8.793-2.427c-1.626,6.32-0.641,12.709,3.618,17.793
		C272.954,830.651,279.274,834.59,285.297,834.43z"/>
	<path d="M538.313,809.126c8.427,4.328,10.557,12.526,2.244,18.388c-3.916,2.771-8.496,4.717-13.396,6.137
		c-10.763,3.137-23.06,3.801-33.067,5.129c-42.662,5.656-86.148,6.778-128.993,2.611c-18.457-1.809-38.311-3.893-56.012-9.641
		c-7.122-2.313-13.373-6.114-14.083-12.778c-3.183-1.969-4.443-7.19-0.206-9.114c14.77-6.71,30.502-9.045,46.44-10.282
		c3.687-0.298,7.374-0.527,11.06-0.733c23.174-1.351,46.326-2.382,69.546-2.45c21.159-0.069,42.456-0.023,63.569,1.717
		C502.59,799.531,522.741,801.157,538.313,809.126z M532.061,819.911c2.633-0.733,2.885-1.259,0.779-1.603
		c-4.946-4.786-20.495-5.862-27.044-6.984c-10.099-1.695-20.312-2.611-30.548-3.183c-16.19-0.916-32.471-1.122-48.707-1.122
		c-3,0-6,0-8.999,0.023c-19.9,0.092-39.753,0.87-59.63,1.969c-18.159,1.008-38.471,0.733-55.211,8.771
		c3.641,10.694,51.203,12.091,58.165,12.686c19.945,1.695,39.937,2.565,59.951,2.359c0.779,0,1.58-0.023,2.359-0.046
		c19.236-0.229,38.425-1.466,57.546-3.504c10.694-1.145,21.342-2.519,31.945-4.305c4.282-0.71,8.542-1.42,12.686-2.656
		C527.642,821.674,529.886,820.873,532.061,819.911z"/>
	<path d="M537.672,711.849c2.656,7.946,1.053,17.793-5.473,23.426c-7.603,6.572-20.884,5.565-27.823-1.557
		c-6.389-6.549-5.816-16.831-1.855-24.48c2.954-5.679,9.045-11.335,15.503-9.709C526.382,697.376,534.832,703.422,537.672,711.849z
		 M521.001,729.413c6.137-0.916,8.358-7.053,7.213-12.618c-1.443-7.03-6.274-7.374-12.457-6.687c-1.74,0.206-2.954-0.55-3.664-1.695
		C506.116,714.917,506.918,731.496,521.001,729.413z"/>
	<path fill="#E8B45D" d="M532.84,818.308c2.107,0.344,1.855,0.87-0.779,1.603c-2.175,0.962-4.42,1.763-6.71,2.404
		c-4.145,1.237-8.404,1.946-12.686,2.656c-10.602,1.786-21.251,3.16-31.945,4.305c-19.121,2.038-38.311,3.275-57.546,3.504
		l-0.069-4.901c3.756-0.115,7.511-0.664,10.992-1.809c4.672-1.534,4.923-7.053,1.282-9.778c-2.427-1.832-5.702-3.091-8.816-3.091
		l-0.023-6.183c16.236,0,32.517,0.206,48.707,1.122c10.236,0.573,20.449,1.488,30.548,3.183
		C512.345,812.446,527.894,813.522,532.84,818.308z"/>
	<path fill="#6A2A0E" d="M528.214,716.795c1.145,5.565-1.076,11.702-7.213,12.618c-14.083,2.084-14.885-14.495-8.908-20.999
		c0.71,1.145,1.924,1.901,3.664,1.695C521.94,709.421,526.771,709.765,528.214,716.795z"/>
	<path fill="#BF8800" d="M520.795,486.22c1.282,12.389,4.374,25.51,10.58,36.662c-37.372,7.19-74.377,15.709-112.001,21.846
		c-16.396,2.656-37.967,0.733-50.127,14.175c-9.137,10.076-11.221,29.838-7.969,42.822c-9.389-0.023-18.64-0.298-28.212-3.16
		c3.893-7.854,4.236-16.74,6.572-25.441c3.343-12.411,10.419-23.747,19.579-32.723c17.976-17.633,44.448-28.876,67.118-39.204
		c21.251-9.686,43.326-17.152,64.737-26.403c6.893-2.977,13.579-6.435,20.472-9.457c3.275-1.443,6.595-2.862,10.007-4.007
		C520.222,470.191,520.039,479.007,520.795,486.22z M507.879,515.555c2.588-1.374,1.557-6.137-1.557-5.794
		c-20.747,2.267-39.364,14.083-60.294,16.625c-5.313,0.641-5.427,9.068,0,8.45C466.706,532.523,489.56,525.47,507.879,515.555z
		 M494.506,499.433c4.694-1.58,3.962-8.587-1.191-8.748c-8.816-0.275-16.259,2.748-24.319,5.977
		c-9.938,4.007-20.037,7.626-29.952,11.679c-18.892,7.74-37.326,16.236-55.394,25.739c-4.878,2.565-0.595,9.343,4.214,7.236
		C422.693,525.997,458.439,511.616,494.506,499.433z"/>
	<path d="M506.322,509.761c3.114-0.344,4.145,4.42,1.557,5.794c-18.32,9.915-41.173,16.968-61.851,19.281
		c-5.427,0.618-5.313-7.809,0-8.45C466.958,523.844,485.575,512.028,506.322,509.761z"/>
	<path d="M493.315,490.686c5.152,0.16,5.885,7.168,1.191,8.748c-36.067,12.183-71.813,26.563-106.643,41.883
		c-4.809,2.107-9.091-4.671-4.214-7.236c18.068-9.503,36.502-17.999,55.394-25.739c9.915-4.053,20.014-7.671,29.952-11.679
		C477.057,493.434,484.499,490.411,493.315,490.686z"/>
	<path fill="#6A2A0E" d="M480.171,703.513c-2.519,5.313-4.099,11.106-4.58,17.014c-26.838-6.732-53.699,0.275-80.973,0.092
		c-17.999-0.115-41.013-1.855-55.989-13.556c-3.962-9.687-5.702-19.945-2.336-31.762c4.305,1.099,8.862,1.695,13.854,1.534
		c0.687,0,1.443-0.046,2.244-0.069c1.053,28.693,32.311,36.868,57.065,33.639c11.541-1.511,22.854-4.672,34.349-6.595
		C453.493,702.185,470.416,698.109,480.171,703.513z"/>
	<path d="M435.38,816.293c3.641,2.725,3.389,8.244-1.282,9.778c-3.481,1.145-7.236,1.695-10.992,1.809
		c-4.236,0.137-8.519-0.275-12.549-1.008c-3.778-0.71-4.626-5.816-2.175-8.29c3.664-3.733,8.267-4.007,13.007-3.893
		c1.534-1.03,3.343-1.488,5.175-1.488C429.678,813.202,432.952,814.461,435.38,816.293z"/>
	<path fill="#E8B45D" d="M426.541,807.019l0.023,6.183c-1.832,0-3.641,0.458-5.175,1.488c-4.74-0.115-9.343,0.16-13.007,3.893
		c-2.45,2.473-1.603,7.58,2.175,8.29c4.03,0.733,8.313,1.145,12.549,1.008l0.069,4.901c-0.779,0.023-1.58,0.046-2.359,0.046
		c-20.014,0.206-40.005-0.664-59.951-2.359c-6.961-0.595-54.524-1.992-58.165-12.686c16.74-8.038,37.051-7.763,55.211-8.771
		c19.877-1.099,39.731-1.878,59.63-1.969C420.541,807.019,423.541,807.019,426.541,807.019z"/>
	<path fill="#6A2A0E" d="M377.627,631.975c0.092,7.442-0.687,15.549,0.298,23.128c-3.733,2.313-7.122,4.649-11.839,5.862
		c-6.252,1.626-12.915,2.473-19.373,2.382c-15.091-0.229-26.243-9.549-38.975-16.121c0.527-3.549,1.053-7.19,1.534-10.854
		c14.976,9.686,37.601,11.518,54.02,6.045c4.259-1.42,4.099-7.007,0-8.519c-16.9-6.183-35.54,2.153-51.776-8.427
		c-0.343-0.229-0.687-0.389-1.03-0.504c0.343-4.786,0.435-9.549,0.115-14.221c1.191-0.252,2.336-0.847,3.343-1.855
		c3.023-2.977,23.06,5.565,27.502,6.206c10.74,1.534,24.846,1.901,35.906-2.107C376.391,619.129,377.536,625.93,377.627,631.975z"/>
	<path fill="#6A2A0E" d="M367.391,733.008c1.672,8.771,2.061,16.51-1.237,24.96c-2.519,6.435-6.458,12.137-8.77,18.663
		c-0.344,0.962-0.115,1.924,0.389,2.771c-4.557,0.298-9.114,0.618-13.671,0.962c5.977-13.648,19.923-27.159,11.404-42.57
		c-2.084-3.755-4.305-7.442-6.481-11.083c5.702,2.565,11.999,4.282,18.274,5.496C367.323,732.481,367.323,732.733,367.391,733.008z"
		/>
	<path fill="#E8B45D" d="M363.842,938.897c-2.771,16.991-2.542,34.67-3.069,51.799c-0.504,15.732-4.374,35.815,0.389,51.157
		c-0.756,0.069-1.534,0.115-2.29,0.183c-8.954,0.71-18.182,0.962-27.479,1.214c-0.824-30.113-0.115-60.867-3.664-90.705
		c-0.527-4.397-6.343-4.397-6.847,0c-3.595,30.021-2.84,60.935-3.687,91.208c-3.069,0.137-6.114,0.298-9.183,0.527
		c0.572-9.664,0.321-19.327,0.229-29.014c-0.115-13.442,0.664-27.25-2.13-40.44c-0.641-3.069-5.542-3.069-6.183,0
		c-2.771,13.19-1.992,26.998-2.13,40.44c-0.092,9.984-0.366,19.945,0.275,29.884c-5.107,0.572-10.167,1.328-15.137,2.359
		c1.374-15.503,0.573-31.075,0.412-46.761c-0.115-10.992-0.183-21.983-0.344-32.975c-0.114-7.786,0.756-16.236-1.328-23.793
		c0.023,0,0.046,0,0.069,0C308.975,940.843,336.431,939.996,363.842,938.897z"/>
	<path fill="#6A2A0E" d="M334.37,729.71c4.878,8.175,13.373,14.908,10.602,25.121c-2.404,8.908-8.519,15.801-9.595,25.167
		c-0.046,0.389-0.023,0.733,0.023,1.053c-4.603,0.389-9.206,0.779-13.785,1.168c1.191-5.198-0.16-12.228-0.618-17.083
		c-1.099-11.839-2.496-23.655-3.778-35.494c-1.351-12.297-2.473-24.594-3.046-36.983c-0.435-8.999-0.023-18.388-0.733-27.548
		c3.458,1.969,6.87,3.847,10.373,5.542c0,0-0.023,0-0.023,0.023C317.425,691.285,323.63,711.688,334.37,729.71z"/>
	<path d="M287.861,828.247c2.038,2.336,0.687,6.091-2.565,6.183c-6.023,0.16-12.343-3.778-16.144-8.313
		c-4.259-5.084-5.244-11.473-3.618-17.793c1.511-5.794,9.709-3.229,8.793,2.427C272.816,820.049,282.938,822.636,287.861,828.247z"
		/>
	<path fill="#E8B45D" d="M273.618,940.385c-3.412,7.832-2.404,17.037-2.542,25.487c-0.183,11.61-0.252,23.243-0.366,34.876
		c-0.206,19.19,2.817,40.669-3.71,58.966c-3.16,2.015-6.32,4.03-9.48,6.046c-27.434-28.762-57.157-55.348-88.85-79.37
		c-1.695-1.282-3.778-2.588-5.771-2.588l-0.229-3c3.618-0.344,7.488-0.252,9.183-3.229c0.664-1.168,0.779-2.565,0.847-3.916
		c1.328-19.831,0.756-39.089,0.756-58.943c-0.023-9.824-0.092-19.648-0.229-29.495c-0.114-7.557,0.458-15.617-1.191-23.083
		c3.916,3.252,8.015,6.366,12.16,9.366c-0.046,0.206-0.069,0.435-0.069,0.664c0,1.214-0.023,2.404-0.023,3.618
		c-0.114,22.396,0.023,44.677-1.901,66.981c-0.321,0.687-0.527,1.511-0.504,2.45c-0.16,8.427-0.252,15.572,1.969,23.655
		c0.962,3.481,6.091,3.481,7.053,0c2.221-8.083,2.153-15.251,1.969-23.655c0.023-0.939-0.183-1.763-0.504-2.45
		c-1.924-22.281-1.786-44.562-1.901-66.958c3.275,2.313,6.549,4.58,9.778,6.847c-0.366,0.71-0.595,1.534-0.618,2.519
		c-0.206,7.603,1.237,15.137,1.145,22.785c-0.114,8.038-0.87,16.075-1.03,24.113c-0.366,18.457-2.794,37.647-0.206,55.966
		c0.252,1.901,1.809,2.954,3.549,3.206l-0.115,1.214c-0.527-0.092-1.053-0.137-1.58-0.16c-2.13-0.137-3.984,2.725-2.611,4.534
		c5.427,7.213,13.534,11.931,20.335,17.747c7.763,6.641,15.228,13.625,22.739,20.541c6.389,5.908,15.984-3.778,9.755-9.412
		c0.801-3.733,0.572-7.74,0.618-12.137c0.183-11.335,0.137-22.693,0.183-34.029c0.069-10.602,0.114-21.182,0.183-31.762
		c0.023-6.916,0.87-14.45,0.206-21.548c0.023,0.023,0.046,0.023,0.069,0.046c0.481,0.916,1.374,1.534,2.748,1.511
		c0.092,0.023,0.16,0.069,0.252,0.092C261.985,931.867,266.931,937.248,273.618,940.385z"/>
	<path fill="#6A2A0E" d="M275.084,904.754c-6.068,2.565-12.137,5.633-16.877,9.572c-8.106-5.13-14.472-14.335-21.983-20.152
		c-6.87-5.313-13.9-10.419-20.976-15.434c-12.366-8.771-24.571-17.701-35.998-27.663c-5.29-4.626-10.786-9.48-15.182-14.999
		c-5.336-6.732-3.572-7.511,4.969-9.526c4.74-1.145,9.526-1.878,14.381-2.427c6.916,16.579,26.701,27.044,39.731,37.899
		C240.391,876.404,255.367,893.625,275.084,904.754z"/>
	<path fill="#6A2A0E" d="M253.283,1079.339c0.572,6.183,1.145,12.48-0.229,18.549c-1.351,6.045-5.015,11.931-10.717,14.358
		c-20.655-17.587-41.288-35.219-61.806-52.966c-9.961-8.633-20.037-17.129-29.678-26.128c-7.465-6.984-17.633-13.602-23.197-22.533
		c1.992,0.046,4.03,0.275,6.091,0.275c5.381,0,11.083-0.412,15.137-4.465c7.007-7.076-0.824-22.212,11.06-25.189
		c0.87-0.206,1.786-0.343,2.725-0.435l0.229,3c-0.664,0-1.282,0.137-1.901,0.458c-3.893,2.107-1.351,8.061,1.672,11.312
		c25.327,27.159,58.577,45.707,85.186,71.584c1.351,1.305,2.679,2.656,3.572,4.282
		C252.757,1073.82,253.031,1076.637,253.283,1079.339z M240.872,1095.208c3.595,1.786,7.717-2.817,4.488-5.816
		c-14.381-13.305-30.044-25.258-44.448-38.609c-14.45-13.396-28.35-27.365-42.708-40.898c-3.87-3.664-9.503,1.969-5.839,5.862
		C178.471,1043.593,206.179,1077.782,240.872,1095.208z"/>
	<path d="M245.36,1089.392c3.229,3-0.893,7.603-4.488,5.816c-34.693-17.426-62.401-51.615-88.506-79.461
		c-3.664-3.893,1.969-9.526,5.839-5.862c14.358,13.534,28.258,27.502,42.708,40.898
		C215.316,1064.134,230.979,1076.088,245.36,1089.392z"/>
	<path fill="#E8B45D" d="M240.574,914.509c0.572,0.618,1.145,1.259,1.695,1.901c-0.114,0.206-0.252,0.412-0.366,0.664
		c-3.343,8.862-1.786,19.052-1.74,28.418c0.069,11.358,0.115,22.693,0.183,34.052c0.069,10.58,0.069,21.182,0.16,31.762
		c0.023,1.74-0.023,3.458-0.046,5.129c-4.649-3.87-9.343-7.717-14.198-11.358c-6.984-5.29-14.587-11.496-23.472-12.618l0.115-1.214
		c2.244,0.298,4.809-0.801,5.221-3.206c3.389-19.556,3.733-39.387,4.763-59.126c0.572-10.648,3.481-24.708,1.076-36.25
		c2.885,2.13,5.794,4.259,8.656,6.435C228.964,903.861,235.238,908.624,240.574,914.509z"/>
	<path fill="#6A2A0E" d="M233.819,1122.253c-0.092,0.092-0.206,0.183-0.298,0.275c-3,2.954-5.198,7.145-5.496,11.358
		c-7.877-1.351-16.579-9.847-21.617-14.175c-9.137-7.877-17.633-16.488-26.014-25.144c-10.328-10.625-21.182-20.678-31.51-31.326
		c-12.228-12.595-23.609-26.907-36.57-38.952c1.511-4.053,3.298-8.542,6.801-11.267c3.481,8.839,10.717,14.816,17.61,21.342
		c10.282,9.732,20.472,19.464,31.006,28.945C189.669,1083.049,211.721,1102.674,233.819,1122.253z"/>
	<path d="M192.691,945.217c0.183,8.404,0.252,15.572-1.969,23.655c-0.962,3.481-6.091,3.481-7.053,0
		c-2.221-8.083-2.13-15.228-1.969-23.655c-0.023-0.939,0.183-1.763,0.504-2.45c1.924-22.304,1.786-44.585,1.901-66.981l6.183,0.023
		c0.114,22.396-0.023,44.677,1.901,66.958C192.508,943.454,192.714,944.278,192.691,945.217z"/>
</g>
</svg>
